<mxfile host="Electron" modified="2024-06-27T13:27:18.079Z" agent="Mozilla/5.0 (Macintosh; Intel Mac OS X 10_15_7) AppleWebKit/537.36 (KHTML, like Gecko) draw.io/24.4.8 Chrome/124.0.6367.207 Electron/30.0.6 Safari/537.36" etag="3XkAmiJ2-eaaf8INu-c_" version="24.4.8" type="device" pages="4">
  <diagram name="unity-catalog" id="vskI-bIVPBTjREEiDPca">
    <mxGraphModel dx="1500" dy="1030" grid="1" gridSize="10" guides="1" tooltips="1" connect="1" arrows="1" fold="1" page="1" pageScale="1" pageWidth="827" pageHeight="1169" math="0" shadow="0">
      <root>
        <mxCell id="0" />
        <mxCell id="1" parent="0" />
        <mxCell id="a5z0X3CHtMkCVGNf4Bgy-1" value="Delta Lake" style="rounded=0;whiteSpace=wrap;html=1;verticalAlign=top;fillColor=#cce5ff;strokeColor=#36393d;" parent="1" vertex="1">
          <mxGeometry x="414" y="150" width="276" height="270" as="geometry" />
        </mxCell>
        <mxCell id="a5z0X3CHtMkCVGNf4Bgy-2" value="Unity Catalog" style="rounded=0;whiteSpace=wrap;html=1;verticalAlign=top;fillColor=#d5e8d4;strokeColor=#82b366;" parent="1" vertex="1">
          <mxGeometry x="90" y="150.13" width="250" height="270" as="geometry" />
        </mxCell>
        <mxCell id="a5z0X3CHtMkCVGNf4Bgy-7" value="Catalog" style="rounded=1;whiteSpace=wrap;html=1;verticalAlign=top;fillColor=#f5f5f5;fontColor=#333333;strokeColor=#666666;" parent="1" vertex="1">
          <mxGeometry x="110" y="180.13" width="215" height="100" as="geometry" />
        </mxCell>
        <mxCell id="a5z0X3CHtMkCVGNf4Bgy-10" value="Schema" style="rounded=0;whiteSpace=wrap;html=1;rotation=90;verticalAlign=top;fillColor=#e1d5e7;strokeColor=#9673a6;" parent="1" vertex="1">
          <mxGeometry x="199.25" y="141.38" width="53" height="177.5" as="geometry" />
        </mxCell>
        <mxCell id="a5z0X3CHtMkCVGNf4Bgy-9" value="Schema" style="rounded=0;whiteSpace=wrap;html=1;rotation=90;verticalAlign=top;fillColor=#e1d5e7;strokeColor=#9673a6;" parent="1" vertex="1">
          <mxGeometry x="179.75" y="156.38" width="53" height="167.5" as="geometry" />
        </mxCell>
        <mxCell id="a5z0X3CHtMkCVGNf4Bgy-11" value="" style="shape=internalStorage;whiteSpace=wrap;html=1;backgroundOutline=1;dx=12;dy=6;" parent="1" vertex="1">
          <mxGeometry x="127.75" y="217.13" width="32" height="26" as="geometry" />
        </mxCell>
        <mxCell id="a5z0X3CHtMkCVGNf4Bgy-19" value="" style="shape=internalStorage;whiteSpace=wrap;html=1;backgroundOutline=1;dx=12;dy=6;" parent="1" vertex="1">
          <mxGeometry x="137.75" y="227.13" width="32" height="26" as="geometry" />
        </mxCell>
        <mxCell id="a5z0X3CHtMkCVGNf4Bgy-20" value="" style="shape=internalStorage;whiteSpace=wrap;html=1;backgroundOutline=1;dx=12;dy=6;" parent="1" vertex="1">
          <mxGeometry x="147.75" y="237.13" width="32" height="26" as="geometry" />
        </mxCell>
        <mxCell id="a5z0X3CHtMkCVGNf4Bgy-12" value="" style="shape=note;whiteSpace=wrap;html=1;backgroundOutline=1;darkOpacity=0.05;size=11;" parent="1" vertex="1">
          <mxGeometry x="220" y="229.63" width="25" height="30" as="geometry" />
        </mxCell>
        <mxCell id="a5z0X3CHtMkCVGNf4Bgy-13" value="" style="shape=note;whiteSpace=wrap;html=1;backgroundOutline=1;darkOpacity=0.05;size=11;" parent="1" vertex="1">
          <mxGeometry x="227" y="226.63" width="25" height="30" as="geometry" />
        </mxCell>
        <mxCell id="a5z0X3CHtMkCVGNf4Bgy-16" value="" style="shape=note;whiteSpace=wrap;html=1;backgroundOutline=1;darkOpacity=0.05;size=11;" parent="1" vertex="1">
          <mxGeometry x="234" y="223.63" width="25" height="30" as="geometry" />
        </mxCell>
        <mxCell id="a5z0X3CHtMkCVGNf4Bgy-17" value="" style="shape=note;whiteSpace=wrap;html=1;backgroundOutline=1;darkOpacity=0.05;size=11;" parent="1" vertex="1">
          <mxGeometry x="241" y="220.63" width="25" height="30" as="geometry" />
        </mxCell>
        <mxCell id="a5z0X3CHtMkCVGNf4Bgy-18" value="" style="shape=process;whiteSpace=wrap;html=1;backgroundOutline=1;size=0.2;" parent="1" vertex="1">
          <mxGeometry x="186" y="220.63" width="30" height="15" as="geometry" />
        </mxCell>
        <mxCell id="a5z0X3CHtMkCVGNf4Bgy-29" value="Catalog" style="rounded=1;whiteSpace=wrap;html=1;verticalAlign=top;fillColor=#f5f5f5;fontColor=#333333;strokeColor=#666666;" parent="1" vertex="1">
          <mxGeometry x="110" y="295.38" width="215" height="100" as="geometry" />
        </mxCell>
        <mxCell id="a5z0X3CHtMkCVGNf4Bgy-30" value="Schema" style="rounded=0;whiteSpace=wrap;html=1;rotation=90;verticalAlign=top;fillColor=#e1d5e7;strokeColor=#9673a6;" parent="1" vertex="1">
          <mxGeometry x="199.25" y="256.63" width="53" height="177.5" as="geometry" />
        </mxCell>
        <mxCell id="a5z0X3CHtMkCVGNf4Bgy-31" value="Schema" style="rounded=0;whiteSpace=wrap;html=1;rotation=90;verticalAlign=top;fillColor=#e1d5e7;strokeColor=#9673a6;" parent="1" vertex="1">
          <mxGeometry x="179.75" y="271.63" width="53" height="167.5" as="geometry" />
        </mxCell>
        <mxCell id="a5z0X3CHtMkCVGNf4Bgy-32" value="" style="shape=internalStorage;whiteSpace=wrap;html=1;backgroundOutline=1;dx=12;dy=6;" parent="1" vertex="1">
          <mxGeometry x="127.75" y="332.38" width="32" height="26" as="geometry" />
        </mxCell>
        <mxCell id="a5z0X3CHtMkCVGNf4Bgy-33" value="" style="shape=internalStorage;whiteSpace=wrap;html=1;backgroundOutline=1;dx=12;dy=6;" parent="1" vertex="1">
          <mxGeometry x="137.75" y="342.38" width="32" height="26" as="geometry" />
        </mxCell>
        <mxCell id="a5z0X3CHtMkCVGNf4Bgy-34" value="" style="shape=internalStorage;whiteSpace=wrap;html=1;backgroundOutline=1;dx=12;dy=6;" parent="1" vertex="1">
          <mxGeometry x="147.75" y="352.38" width="32" height="26" as="geometry" />
        </mxCell>
        <mxCell id="a5z0X3CHtMkCVGNf4Bgy-35" value="" style="shape=note;whiteSpace=wrap;html=1;backgroundOutline=1;darkOpacity=0.05;size=11;" parent="1" vertex="1">
          <mxGeometry x="220" y="344.88" width="25" height="30" as="geometry" />
        </mxCell>
        <mxCell id="a5z0X3CHtMkCVGNf4Bgy-36" value="" style="shape=note;whiteSpace=wrap;html=1;backgroundOutline=1;darkOpacity=0.05;size=11;" parent="1" vertex="1">
          <mxGeometry x="227" y="341.88" width="25" height="30" as="geometry" />
        </mxCell>
        <mxCell id="a5z0X3CHtMkCVGNf4Bgy-37" value="" style="shape=note;whiteSpace=wrap;html=1;backgroundOutline=1;darkOpacity=0.05;size=11;" parent="1" vertex="1">
          <mxGeometry x="234" y="338.88" width="25" height="30" as="geometry" />
        </mxCell>
        <mxCell id="a5z0X3CHtMkCVGNf4Bgy-38" value="" style="shape=note;whiteSpace=wrap;html=1;backgroundOutline=1;darkOpacity=0.05;size=11;" parent="1" vertex="1">
          <mxGeometry x="241" y="335.88" width="25" height="30" as="geometry" />
        </mxCell>
        <mxCell id="a5z0X3CHtMkCVGNf4Bgy-39" value="" style="shape=process;whiteSpace=wrap;html=1;backgroundOutline=1;size=0.2;" parent="1" vertex="1">
          <mxGeometry x="186" y="335.88" width="30" height="15" as="geometry" />
        </mxCell>
        <mxCell id="a5z0X3CHtMkCVGNf4Bgy-40" value="parquet files" style="shape=document;whiteSpace=wrap;html=1;boundedLbl=1;" parent="1" vertex="1">
          <mxGeometry x="535" y="325.25" width="80" height="40" as="geometry" />
        </mxCell>
        <mxCell id="a5z0X3CHtMkCVGNf4Bgy-41" value="parquet files" style="shape=document;whiteSpace=wrap;html=1;boundedLbl=1;" parent="1" vertex="1">
          <mxGeometry x="545" y="335.25" width="80" height="40" as="geometry" />
        </mxCell>
        <mxCell id="a5z0X3CHtMkCVGNf4Bgy-42" value="parquet files" style="shape=document;whiteSpace=wrap;html=1;boundedLbl=1;" parent="1" vertex="1">
          <mxGeometry x="555" y="345.25" width="80" height="40" as="geometry" />
        </mxCell>
        <mxCell id="a5z0X3CHtMkCVGNf4Bgy-43" value="parquet files" style="shape=document;whiteSpace=wrap;html=1;boundedLbl=1;" parent="1" vertex="1">
          <mxGeometry x="565" y="355.25" width="80" height="40" as="geometry" />
        </mxCell>
        <mxCell id="a5z0X3CHtMkCVGNf4Bgy-44" value="parquet files" style="shape=document;whiteSpace=wrap;html=1;boundedLbl=1;" parent="1" vertex="1">
          <mxGeometry x="540" y="265.25" width="80" height="40" as="geometry" />
        </mxCell>
        <mxCell id="a5z0X3CHtMkCVGNf4Bgy-45" value="parquet files" style="shape=document;whiteSpace=wrap;html=1;boundedLbl=1;" parent="1" vertex="1">
          <mxGeometry x="550" y="275.25" width="80" height="40" as="geometry" />
        </mxCell>
        <mxCell id="a5z0X3CHtMkCVGNf4Bgy-46" value="parquet files" style="shape=document;whiteSpace=wrap;html=1;boundedLbl=1;" parent="1" vertex="1">
          <mxGeometry x="560" y="285.25" width="80" height="40" as="geometry" />
        </mxCell>
        <mxCell id="a5z0X3CHtMkCVGNf4Bgy-47" value="parquet files" style="shape=document;whiteSpace=wrap;html=1;boundedLbl=1;" parent="1" vertex="1">
          <mxGeometry x="570" y="295.25" width="80" height="40" as="geometry" />
        </mxCell>
        <mxCell id="a5z0X3CHtMkCVGNf4Bgy-48" value="parquet files" style="shape=document;whiteSpace=wrap;html=1;boundedLbl=1;" parent="1" vertex="1">
          <mxGeometry x="537" y="202.25" width="80" height="40" as="geometry" />
        </mxCell>
        <mxCell id="a5z0X3CHtMkCVGNf4Bgy-49" value="parquet files" style="shape=document;whiteSpace=wrap;html=1;boundedLbl=1;" parent="1" vertex="1">
          <mxGeometry x="547" y="212.25" width="80" height="40" as="geometry" />
        </mxCell>
        <mxCell id="a5z0X3CHtMkCVGNf4Bgy-50" value="parquet files" style="shape=document;whiteSpace=wrap;html=1;boundedLbl=1;" parent="1" vertex="1">
          <mxGeometry x="557" y="222.25" width="80" height="40" as="geometry" />
        </mxCell>
        <mxCell id="a5z0X3CHtMkCVGNf4Bgy-51" value="parquet files" style="shape=document;whiteSpace=wrap;html=1;boundedLbl=1;" parent="1" vertex="1">
          <mxGeometry x="567" y="232.25" width="80" height="40" as="geometry" />
        </mxCell>
        <mxCell id="a5z0X3CHtMkCVGNf4Bgy-21" value="parquet files" style="shape=document;whiteSpace=wrap;html=1;boundedLbl=1;" parent="1" vertex="1">
          <mxGeometry x="440" y="325.25" width="80" height="40" as="geometry" />
        </mxCell>
        <mxCell id="a5z0X3CHtMkCVGNf4Bgy-22" value="parquet files" style="shape=document;whiteSpace=wrap;html=1;boundedLbl=1;" parent="1" vertex="1">
          <mxGeometry x="450" y="335.25" width="80" height="40" as="geometry" />
        </mxCell>
        <mxCell id="a5z0X3CHtMkCVGNf4Bgy-23" value="parquet files" style="shape=document;whiteSpace=wrap;html=1;boundedLbl=1;" parent="1" vertex="1">
          <mxGeometry x="460" y="345.25" width="80" height="40" as="geometry" />
        </mxCell>
        <mxCell id="a5z0X3CHtMkCVGNf4Bgy-24" value="parquet files" style="shape=document;whiteSpace=wrap;html=1;boundedLbl=1;" parent="1" vertex="1">
          <mxGeometry x="470" y="355.25" width="80" height="40" as="geometry" />
        </mxCell>
        <mxCell id="a5z0X3CHtMkCVGNf4Bgy-3" value="parquet files" style="shape=document;whiteSpace=wrap;html=1;boundedLbl=1;" parent="1" vertex="1">
          <mxGeometry x="445" y="265.25" width="80" height="40" as="geometry" />
        </mxCell>
        <mxCell id="a5z0X3CHtMkCVGNf4Bgy-4" value="parquet files" style="shape=document;whiteSpace=wrap;html=1;boundedLbl=1;" parent="1" vertex="1">
          <mxGeometry x="455" y="275.25" width="80" height="40" as="geometry" />
        </mxCell>
        <mxCell id="a5z0X3CHtMkCVGNf4Bgy-5" value="parquet files" style="shape=document;whiteSpace=wrap;html=1;boundedLbl=1;" parent="1" vertex="1">
          <mxGeometry x="465" y="285.25" width="80" height="40" as="geometry" />
        </mxCell>
        <mxCell id="a5z0X3CHtMkCVGNf4Bgy-6" value="parquet files" style="shape=document;whiteSpace=wrap;html=1;boundedLbl=1;" parent="1" vertex="1">
          <mxGeometry x="475" y="295.25" width="80" height="40" as="geometry" />
        </mxCell>
        <mxCell id="a5z0X3CHtMkCVGNf4Bgy-25" value="parquet files" style="shape=document;whiteSpace=wrap;html=1;boundedLbl=1;" parent="1" vertex="1">
          <mxGeometry x="442" y="202.25" width="80" height="40" as="geometry" />
        </mxCell>
        <mxCell id="a5z0X3CHtMkCVGNf4Bgy-26" value="parquet files" style="shape=document;whiteSpace=wrap;html=1;boundedLbl=1;" parent="1" vertex="1">
          <mxGeometry x="452" y="212.25" width="80" height="40" as="geometry" />
        </mxCell>
        <mxCell id="a5z0X3CHtMkCVGNf4Bgy-27" value="parquet files" style="shape=document;whiteSpace=wrap;html=1;boundedLbl=1;" parent="1" vertex="1">
          <mxGeometry x="462" y="222.25" width="80" height="40" as="geometry" />
        </mxCell>
        <mxCell id="a5z0X3CHtMkCVGNf4Bgy-28" value="parquet files" style="shape=document;whiteSpace=wrap;html=1;boundedLbl=1;" parent="1" vertex="1">
          <mxGeometry x="472" y="232.25" width="80" height="40" as="geometry" />
        </mxCell>
        <mxCell id="a5z0X3CHtMkCVGNf4Bgy-52" value="" style="shape=flexArrow;endArrow=classic;startArrow=classic;html=1;rounded=0;exitX=1;exitY=0.5;exitDx=0;exitDy=0;entryX=0;entryY=0.5;entryDx=0;entryDy=0;fillColor=#a20025;strokeColor=#6F0000;" parent="1" source="a5z0X3CHtMkCVGNf4Bgy-2" target="a5z0X3CHtMkCVGNf4Bgy-1" edge="1">
          <mxGeometry width="100" height="100" relative="1" as="geometry">
            <mxPoint x="390" y="280" as="sourcePoint" />
            <mxPoint x="660" y="380" as="targetPoint" />
          </mxGeometry>
        </mxCell>
        <mxCell id="a5z0X3CHtMkCVGNf4Bgy-53" value="" style="shape=callout;whiteSpace=wrap;html=1;perimeter=calloutPerimeter;fillColor=#ffff88;strokeColor=#36393d;rotation=-180;size=27;position=0.32;" parent="1" vertex="1">
          <mxGeometry x="208.25" y="378.38" width="76.5" height="81.62" as="geometry" />
        </mxCell>
        <mxCell id="a5z0X3CHtMkCVGNf4Bgy-55" value="" style="shape=callout;whiteSpace=wrap;html=1;perimeter=calloutPerimeter;fillColor=#ffff88;strokeColor=#36393d;rotation=-180;size=122;position=0.44;" parent="1" vertex="1">
          <mxGeometry x="156.25" y="351.62" width="76.5" height="190" as="geometry" />
        </mxCell>
        <mxCell id="a5z0X3CHtMkCVGNf4Bgy-56" value="" style="shape=callout;whiteSpace=wrap;html=1;perimeter=calloutPerimeter;fillColor=#ffff88;strokeColor=#36393d;rotation=-180;size=27;position=0.32;position2=0.11;" parent="1" vertex="1">
          <mxGeometry x="71.25" y="365.88" width="76.5" height="74.75" as="geometry" />
        </mxCell>
        <mxCell id="a5z0X3CHtMkCVGNf4Bgy-54" value="Tables" style="text;html=1;align=center;verticalAlign=middle;resizable=0;points=[];autosize=1;strokeColor=none;fillColor=none;" parent="1" vertex="1">
          <mxGeometry x="79.5" y="404.13" width="60" height="30" as="geometry" />
        </mxCell>
        <mxCell id="a5z0X3CHtMkCVGNf4Bgy-57" value="Functions" style="text;html=1;align=center;verticalAlign=middle;resizable=0;points=[];autosize=1;strokeColor=none;fillColor=none;" parent="1" vertex="1">
          <mxGeometry x="152.75" y="490" width="80" height="30" as="geometry" />
        </mxCell>
        <mxCell id="a5z0X3CHtMkCVGNf4Bgy-58" value="Volumes" style="text;html=1;align=center;verticalAlign=middle;resizable=0;points=[];autosize=1;strokeColor=none;fillColor=none;" parent="1" vertex="1">
          <mxGeometry x="208.25" y="420" width="70" height="30" as="geometry" />
        </mxCell>
      </root>
    </mxGraphModel>
  </diagram>
  <diagram id="EKmxdlKalx4LYAEuCfX2" name="mapping">
    <mxGraphModel dx="2634" dy="1030" grid="1" gridSize="10" guides="1" tooltips="1" connect="1" arrows="1" fold="1" page="1" pageScale="1" pageWidth="827" pageHeight="1169" math="0" shadow="0">
      <root>
        <mxCell id="0" />
        <mxCell id="1" parent="0" />
        <mxCell id="B9Y0WBPp0b_zdpYN_vk--14" style="edgeStyle=orthogonalEdgeStyle;rounded=0;orthogonalLoop=1;jettySize=auto;html=1;exitX=1;exitY=0.75;exitDx=0;exitDy=0;entryX=0.5;entryY=0;entryDx=0;entryDy=0;" parent="1" source="B9Y0WBPp0b_zdpYN_vk--12" target="B9Y0WBPp0b_zdpYN_vk--7" edge="1">
          <mxGeometry relative="1" as="geometry">
            <Array as="points">
              <mxPoint x="620" y="220" />
            </Array>
          </mxGeometry>
        </mxCell>
        <mxCell id="B9Y0WBPp0b_zdpYN_vk--1" value="Software&lt;div&gt;Server&lt;/div&gt;" style="shape=cylinder3;whiteSpace=wrap;html=1;boundedLbl=1;backgroundOutline=1;size=5;fillColor=#f5f5f5;fontColor=#333333;strokeColor=#666666;" parent="1" vertex="1">
          <mxGeometry x="-10" y="150" width="60" height="80" as="geometry" />
        </mxCell>
        <mxCell id="B9Y0WBPp0b_zdpYN_vk--2" value="Unity Catalog Server" style="text;html=1;align=center;verticalAlign=middle;resizable=0;points=[];autosize=1;strokeColor=none;fillColor=none;" parent="1" vertex="1">
          <mxGeometry x="-40" y="70" width="130" height="30" as="geometry" />
        </mxCell>
        <mxCell id="B9Y0WBPp0b_zdpYN_vk--3" value="UC Catalog" style="text;html=1;align=center;verticalAlign=middle;resizable=0;points=[];autosize=1;strokeColor=none;fillColor=none;" parent="1" vertex="1">
          <mxGeometry x="190" y="70" width="90" height="30" as="geometry" />
        </mxCell>
        <mxCell id="B9Y0WBPp0b_zdpYN_vk--4" value="Deployed&lt;div&gt;Software&lt;/div&gt;&lt;div&gt;Component&lt;/div&gt;" style="shape=process;whiteSpace=wrap;html=1;backgroundOutline=1;fillColor=#fff2cc;strokeColor=#d6b656;" parent="1" vertex="1">
          <mxGeometry x="1350" y="270" width="120" height="60" as="geometry" />
        </mxCell>
        <mxCell id="B9Y0WBPp0b_zdpYN_vk--37" style="edgeStyle=orthogonalEdgeStyle;rounded=0;orthogonalLoop=1;jettySize=auto;html=1;exitX=0.5;exitY=1;exitDx=0;exitDy=0;" parent="1" source="B9Y0WBPp0b_zdpYN_vk--5" target="B9Y0WBPp0b_zdpYN_vk--17" edge="1">
          <mxGeometry relative="1" as="geometry" />
        </mxCell>
        <mxCell id="B9Y0WBPp0b_zdpYN_vk--5" value="Table&lt;div&gt;Data Set&lt;/div&gt;" style="shape=internalStorage;whiteSpace=wrap;html=1;backgroundOutline=1;fillColor=#fff2cc;strokeColor=#d6b656;" parent="1" vertex="1">
          <mxGeometry x="865" y="260" width="80" height="80" as="geometry" />
        </mxCell>
        <mxCell id="B9Y0WBPp0b_zdpYN_vk--6" value="UC Schema" style="text;html=1;align=center;verticalAlign=middle;resizable=0;points=[];autosize=1;strokeColor=none;fillColor=none;" parent="1" vertex="1">
          <mxGeometry x="430" y="70" width="90" height="30" as="geometry" />
        </mxCell>
        <mxCell id="B9Y0WBPp0b_zdpYN_vk--7" value="" style="rounded=1;whiteSpace=wrap;html=1;fillColor=#fff2cc;strokeColor=#d6b656;" parent="1" vertex="1">
          <mxGeometry x="600" y="260" width="40" height="20" as="geometry" />
        </mxCell>
        <mxCell id="B9Y0WBPp0b_zdpYN_vk--8" value="Data Folder" style="rounded=0;whiteSpace=wrap;html=1;fillColor=#fff2cc;strokeColor=#d6b656;" parent="1" vertex="1">
          <mxGeometry x="600" y="276" width="120" height="60" as="geometry" />
        </mxCell>
        <mxCell id="B9Y0WBPp0b_zdpYN_vk--9" style="edgeStyle=orthogonalEdgeStyle;rounded=0;orthogonalLoop=1;jettySize=auto;html=1;exitX=0.75;exitY=0;exitDx=0;exitDy=0;entryX=0.75;entryY=1;entryDx=0;entryDy=0;endArrow=none;endFill=0;fillColor=#fff2cc;strokeColor=#d6b656;" parent="1" source="B9Y0WBPp0b_zdpYN_vk--5" target="B9Y0WBPp0b_zdpYN_vk--5" edge="1">
          <mxGeometry relative="1" as="geometry">
            <Array as="points">
              <mxPoint x="925" y="290" />
              <mxPoint x="925" y="290" />
            </Array>
          </mxGeometry>
        </mxCell>
        <mxCell id="B9Y0WBPp0b_zdpYN_vk--16" style="edgeStyle=orthogonalEdgeStyle;rounded=0;orthogonalLoop=1;jettySize=auto;html=1;exitX=0;exitY=0;exitDx=120;exitDy=45;exitPerimeter=0;" parent="1" source="B9Y0WBPp0b_zdpYN_vk--10" target="B9Y0WBPp0b_zdpYN_vk--12" edge="1">
          <mxGeometry relative="1" as="geometry" />
        </mxCell>
        <mxCell id="B9Y0WBPp0b_zdpYN_vk--10" value="Catalog&lt;div&gt;(Software Capability)&lt;/div&gt;" style="shape=cube;whiteSpace=wrap;html=1;boundedLbl=1;backgroundOutline=1;darkOpacity=0.05;darkOpacity2=0.1;size=10;fillColor=#ffe6cc;strokeColor=#d79b00;" parent="1" vertex="1">
          <mxGeometry x="175" y="155" width="120" height="80" as="geometry" />
        </mxCell>
        <mxCell id="B9Y0WBPp0b_zdpYN_vk--11" style="edgeStyle=orthogonalEdgeStyle;rounded=0;orthogonalLoop=1;jettySize=auto;html=1;exitX=1;exitY=0.5;exitDx=0;exitDy=0;exitPerimeter=0;entryX=0;entryY=0;entryDx=0;entryDy=35;entryPerimeter=0;" parent="1" source="B9Y0WBPp0b_zdpYN_vk--1" target="B9Y0WBPp0b_zdpYN_vk--10" edge="1">
          <mxGeometry relative="1" as="geometry" />
        </mxCell>
        <mxCell id="B9Y0WBPp0b_zdpYN_vk--35" style="edgeStyle=orthogonalEdgeStyle;rounded=0;orthogonalLoop=1;jettySize=auto;html=1;exitX=1;exitY=0.25;exitDx=0;exitDy=0;entryX=0.5;entryY=0;entryDx=0;entryDy=0;" parent="1" source="B9Y0WBPp0b_zdpYN_vk--12" target="B9Y0WBPp0b_zdpYN_vk--78" edge="1">
          <mxGeometry relative="1" as="geometry">
            <mxPoint x="1180" y="230" as="targetPoint" />
          </mxGeometry>
        </mxCell>
        <mxCell id="B9Y0WBPp0b_zdpYN_vk--36" style="edgeStyle=orthogonalEdgeStyle;rounded=0;orthogonalLoop=1;jettySize=auto;html=1;exitX=1;exitY=0.5;exitDx=0;exitDy=0;entryX=0.5;entryY=0;entryDx=0;entryDy=0;" parent="1" source="B9Y0WBPp0b_zdpYN_vk--12" target="B9Y0WBPp0b_zdpYN_vk--5" edge="1">
          <mxGeometry relative="1" as="geometry" />
        </mxCell>
        <mxCell id="B9Y0WBPp0b_zdpYN_vk--12" value="Deployed&lt;div&gt;Database&lt;/div&gt;&lt;div&gt;Schema&lt;/div&gt;" style="shape=document;whiteSpace=wrap;html=1;boundedLbl=1;fillColor=#dae8fc;strokeColor=#6c8ebf;" parent="1" vertex="1">
          <mxGeometry x="410" y="160" width="130" height="80" as="geometry" />
        </mxCell>
        <mxCell id="B9Y0WBPp0b_zdpYN_vk--13" value="UC Volume" style="text;html=1;align=center;verticalAlign=middle;resizable=0;points=[];autosize=1;strokeColor=none;fillColor=none;" parent="1" vertex="1">
          <mxGeometry x="620" y="70" width="80" height="30" as="geometry" />
        </mxCell>
        <mxCell id="B9Y0WBPp0b_zdpYN_vk--15" value="UC Table" style="text;html=1;align=center;verticalAlign=middle;resizable=0;points=[];autosize=1;strokeColor=none;fillColor=none;" parent="1" vertex="1">
          <mxGeometry x="865" y="70" width="70" height="30" as="geometry" />
        </mxCell>
        <mxCell id="B9Y0WBPp0b_zdpYN_vk--27" style="edgeStyle=orthogonalEdgeStyle;rounded=0;orthogonalLoop=1;jettySize=auto;html=1;exitX=0.5;exitY=1;exitDx=0;exitDy=0;fillColor=#e1d5e7;strokeColor=#9673a6;" parent="1" source="B9Y0WBPp0b_zdpYN_vk--17" target="B9Y0WBPp0b_zdpYN_vk--18" edge="1">
          <mxGeometry relative="1" as="geometry" />
        </mxCell>
        <mxCell id="B9Y0WBPp0b_zdpYN_vk--17" value="Relational DB Schema Type" style="rounded=0;whiteSpace=wrap;html=1;fillColor=#e1d5e7;strokeColor=#9673a6;" parent="1" vertex="1">
          <mxGeometry x="845" y="425" width="120" height="60" as="geometry" />
        </mxCell>
        <mxCell id="B9Y0WBPp0b_zdpYN_vk--20" style="edgeStyle=orthogonalEdgeStyle;rounded=0;orthogonalLoop=1;jettySize=auto;html=1;exitX=0.5;exitY=1;exitDx=0;exitDy=0;entryX=0;entryY=0.5;entryDx=0;entryDy=0;fillColor=#e1d5e7;strokeColor=#9673a6;" parent="1" source="B9Y0WBPp0b_zdpYN_vk--18" target="B9Y0WBPp0b_zdpYN_vk--19" edge="1">
          <mxGeometry relative="1" as="geometry" />
        </mxCell>
        <mxCell id="B9Y0WBPp0b_zdpYN_vk--18" value="Relational Table" style="rounded=0;whiteSpace=wrap;html=1;fillColor=#e1d5e7;strokeColor=#9673a6;" parent="1" vertex="1">
          <mxGeometry x="845" y="540" width="120" height="60" as="geometry" />
        </mxCell>
        <mxCell id="B9Y0WBPp0b_zdpYN_vk--19" value="Relational Column" style="rounded=0;whiteSpace=wrap;html=1;fillColor=#e1d5e7;strokeColor=#9673a6;" parent="1" vertex="1">
          <mxGeometry x="945" y="639" width="120" height="60" as="geometry" />
        </mxCell>
        <mxCell id="B9Y0WBPp0b_zdpYN_vk--22" style="edgeStyle=orthogonalEdgeStyle;rounded=0;orthogonalLoop=1;jettySize=auto;html=1;exitX=0.5;exitY=1;exitDx=0;exitDy=0;entryX=0;entryY=0.5;entryDx=0;entryDy=0;fillColor=#e1d5e7;strokeColor=#9673a6;" parent="1" source="B9Y0WBPp0b_zdpYN_vk--18" target="B9Y0WBPp0b_zdpYN_vk--23" edge="1">
          <mxGeometry relative="1" as="geometry">
            <mxPoint x="915" y="599" as="sourcePoint" />
          </mxGeometry>
        </mxCell>
        <mxCell id="B9Y0WBPp0b_zdpYN_vk--23" value="Relational Column" style="rounded=0;whiteSpace=wrap;html=1;fillColor=#e1d5e7;strokeColor=#9673a6;" parent="1" vertex="1">
          <mxGeometry x="955" y="649" width="120" height="60" as="geometry" />
        </mxCell>
        <mxCell id="B9Y0WBPp0b_zdpYN_vk--24" style="edgeStyle=orthogonalEdgeStyle;rounded=0;orthogonalLoop=1;jettySize=auto;html=1;exitX=0.5;exitY=1;exitDx=0;exitDy=0;entryX=0;entryY=0.5;entryDx=0;entryDy=0;fillColor=#e1d5e7;strokeColor=#9673a6;" parent="1" source="B9Y0WBPp0b_zdpYN_vk--18" target="B9Y0WBPp0b_zdpYN_vk--25" edge="1">
          <mxGeometry relative="1" as="geometry">
            <mxPoint x="925" y="609" as="sourcePoint" />
          </mxGeometry>
        </mxCell>
        <mxCell id="B9Y0WBPp0b_zdpYN_vk--25" value="Relational Column" style="rounded=0;whiteSpace=wrap;html=1;fillColor=#e1d5e7;strokeColor=#9673a6;" parent="1" vertex="1">
          <mxGeometry x="965" y="659" width="120" height="60" as="geometry" />
        </mxCell>
        <mxCell id="B9Y0WBPp0b_zdpYN_vk--29" value="UC Function" style="text;html=1;align=center;verticalAlign=middle;resizable=0;points=[];autosize=1;strokeColor=none;fillColor=none;" parent="1" vertex="1">
          <mxGeometry x="1145" y="75" width="90" height="30" as="geometry" />
        </mxCell>
        <mxCell id="B9Y0WBPp0b_zdpYN_vk--33" value="AssetSchema" style="text;html=1;align=center;verticalAlign=middle;resizable=0;points=[];autosize=1;strokeColor=none;fillColor=none;" parent="1" vertex="1">
          <mxGeometry x="910" y="360" width="100" height="30" as="geometry" />
        </mxCell>
        <mxCell id="B9Y0WBPp0b_zdpYN_vk--39" value="DataContentForDataSet" style="text;html=1;align=center;verticalAlign=middle;resizable=0;points=[];autosize=1;strokeColor=none;fillColor=none;" parent="1" vertex="1">
          <mxGeometry x="620" y="220" width="150" height="30" as="geometry" />
        </mxCell>
        <mxCell id="B9Y0WBPp0b_zdpYN_vk--40" style="edgeStyle=orthogonalEdgeStyle;rounded=0;orthogonalLoop=1;jettySize=auto;html=1;exitX=0.5;exitY=1;exitDx=0;exitDy=0;" parent="1" target="B9Y0WBPp0b_zdpYN_vk--42" edge="1">
          <mxGeometry relative="1" as="geometry">
            <mxPoint x="660" y="336" as="sourcePoint" />
          </mxGeometry>
        </mxCell>
        <mxCell id="B9Y0WBPp0b_zdpYN_vk--41" style="edgeStyle=orthogonalEdgeStyle;rounded=0;orthogonalLoop=1;jettySize=auto;html=1;exitX=0.5;exitY=1;exitDx=0;exitDy=0;fillColor=#e1d5e7;strokeColor=#9673a6;" parent="1" source="B9Y0WBPp0b_zdpYN_vk--42" target="B9Y0WBPp0b_zdpYN_vk--44" edge="1">
          <mxGeometry relative="1" as="geometry" />
        </mxCell>
        <mxCell id="B9Y0WBPp0b_zdpYN_vk--42" value="Tabular&lt;div&gt;Schema Type&lt;/div&gt;" style="rounded=0;whiteSpace=wrap;html=1;fillColor=#e1d5e7;strokeColor=#9673a6;" parent="1" vertex="1">
          <mxGeometry x="600" y="421" width="120" height="60" as="geometry" />
        </mxCell>
        <mxCell id="B9Y0WBPp0b_zdpYN_vk--43" style="edgeStyle=orthogonalEdgeStyle;rounded=0;orthogonalLoop=1;jettySize=auto;html=1;exitX=0.5;exitY=1;exitDx=0;exitDy=0;entryX=0;entryY=0.5;entryDx=0;entryDy=0;fillColor=#e1d5e7;strokeColor=#9673a6;" parent="1" source="B9Y0WBPp0b_zdpYN_vk--44" target="B9Y0WBPp0b_zdpYN_vk--45" edge="1">
          <mxGeometry relative="1" as="geometry" />
        </mxCell>
        <mxCell id="B9Y0WBPp0b_zdpYN_vk--44" value="TabularFileColumn" style="rounded=0;whiteSpace=wrap;html=1;fillColor=#e1d5e7;strokeColor=#9673a6;" parent="1" vertex="1">
          <mxGeometry x="600" y="536" width="120" height="60" as="geometry" />
        </mxCell>
        <mxCell id="B9Y0WBPp0b_zdpYN_vk--45" value="Relational Column" style="rounded=0;whiteSpace=wrap;html=1;fillColor=#e1d5e7;strokeColor=#9673a6;" parent="1" vertex="1">
          <mxGeometry x="700" y="635" width="120" height="60" as="geometry" />
        </mxCell>
        <mxCell id="B9Y0WBPp0b_zdpYN_vk--46" style="edgeStyle=orthogonalEdgeStyle;rounded=0;orthogonalLoop=1;jettySize=auto;html=1;exitX=0.5;exitY=1;exitDx=0;exitDy=0;entryX=0;entryY=0.5;entryDx=0;entryDy=0;fillColor=#e1d5e7;strokeColor=#9673a6;" parent="1" source="B9Y0WBPp0b_zdpYN_vk--44" target="B9Y0WBPp0b_zdpYN_vk--47" edge="1">
          <mxGeometry relative="1" as="geometry">
            <mxPoint x="670" y="595" as="sourcePoint" />
          </mxGeometry>
        </mxCell>
        <mxCell id="B9Y0WBPp0b_zdpYN_vk--47" value="Relational Column" style="rounded=0;whiteSpace=wrap;html=1;fillColor=#e1d5e7;strokeColor=#9673a6;" parent="1" vertex="1">
          <mxGeometry x="710" y="645" width="120" height="60" as="geometry" />
        </mxCell>
        <mxCell id="B9Y0WBPp0b_zdpYN_vk--48" style="edgeStyle=orthogonalEdgeStyle;rounded=0;orthogonalLoop=1;jettySize=auto;html=1;exitX=0.5;exitY=1;exitDx=0;exitDy=0;entryX=0;entryY=0.5;entryDx=0;entryDy=0;fillColor=#e1d5e7;strokeColor=#9673a6;" parent="1" source="B9Y0WBPp0b_zdpYN_vk--44" target="B9Y0WBPp0b_zdpYN_vk--49" edge="1">
          <mxGeometry relative="1" as="geometry">
            <mxPoint x="680" y="605" as="sourcePoint" />
          </mxGeometry>
        </mxCell>
        <mxCell id="B9Y0WBPp0b_zdpYN_vk--49" value="Relational Column" style="rounded=0;whiteSpace=wrap;html=1;fillColor=#e1d5e7;strokeColor=#9673a6;" parent="1" vertex="1">
          <mxGeometry x="720" y="655" width="120" height="60" as="geometry" />
        </mxCell>
        <mxCell id="B9Y0WBPp0b_zdpYN_vk--50" value="AssetSchema" style="text;html=1;align=center;verticalAlign=middle;resizable=0;points=[];autosize=1;strokeColor=none;fillColor=none;" parent="1" vertex="1">
          <mxGeometry x="665" y="356" width="100" height="30" as="geometry" />
        </mxCell>
        <mxCell id="B9Y0WBPp0b_zdpYN_vk--73" style="edgeStyle=orthogonalEdgeStyle;rounded=0;orthogonalLoop=1;jettySize=auto;html=1;exitX=0.5;exitY=1;exitDx=0;exitDy=0;dashed=1;fillColor=#e1d5e7;strokeColor=#9673a6;" parent="1" source="B9Y0WBPp0b_zdpYN_vk--53" edge="1">
          <mxGeometry relative="1" as="geometry">
            <mxPoint x="1190" y="530" as="targetPoint" />
          </mxGeometry>
        </mxCell>
        <mxCell id="B9Y0WBPp0b_zdpYN_vk--53" value="API Schema Type" style="rounded=0;whiteSpace=wrap;html=1;fillColor=#e1d5e7;strokeColor=#9673a6;" parent="1" vertex="1">
          <mxGeometry x="1130" y="425" width="120" height="60" as="geometry" />
        </mxCell>
        <mxCell id="B9Y0WBPp0b_zdpYN_vk--68" style="edgeStyle=orthogonalEdgeStyle;rounded=0;orthogonalLoop=1;jettySize=auto;html=1;exitX=0.5;exitY=1;exitDx=0;exitDy=0;" parent="1" source="B9Y0WBPp0b_zdpYN_vk--78" target="B9Y0WBPp0b_zdpYN_vk--53" edge="1">
          <mxGeometry relative="1" as="geometry" />
        </mxCell>
        <mxCell id="B9Y0WBPp0b_zdpYN_vk--75" value="The members of the schema&amp;nbsp;&lt;div&gt;collection are anchored to it&lt;/div&gt;" style="text;html=1;align=center;verticalAlign=middle;resizable=0;points=[];autosize=1;strokeColor=none;fillColor=none;" parent="1" vertex="1">
          <mxGeometry x="375" y="270" width="180" height="40" as="geometry" />
        </mxCell>
        <mxCell id="B9Y0WBPp0b_zdpYN_vk--79" style="edgeStyle=orthogonalEdgeStyle;rounded=0;orthogonalLoop=1;jettySize=auto;html=1;exitX=1;exitY=0.5;exitDx=0;exitDy=0;entryX=0;entryY=0.5;entryDx=0;entryDy=0;" parent="1" source="B9Y0WBPp0b_zdpYN_vk--78" target="B9Y0WBPp0b_zdpYN_vk--4" edge="1">
          <mxGeometry relative="1" as="geometry" />
        </mxCell>
        <mxCell id="B9Y0WBPp0b_zdpYN_vk--78" value="Deployed API" style="shape=trapezoid;perimeter=trapezoidPerimeter;whiteSpace=wrap;html=1;fixedSize=1;fillColor=#fff2cc;strokeColor=#d6b656;" parent="1" vertex="1">
          <mxGeometry x="1130" y="270" width="120" height="60" as="geometry" />
        </mxCell>
        <mxCell id="B9Y0WBPp0b_zdpYN_vk--80" value="ProcessCall" style="text;html=1;align=center;verticalAlign=middle;resizable=0;points=[];autosize=1;strokeColor=none;fillColor=none;" parent="1" vertex="1">
          <mxGeometry x="1250" y="300" width="90" height="30" as="geometry" />
        </mxCell>
        <mxCell id="B9Y0WBPp0b_zdpYN_vk--81" value="(implementation)" style="text;html=1;align=center;verticalAlign=middle;resizable=0;points=[];autosize=1;strokeColor=none;fillColor=none;" parent="1" vertex="1">
          <mxGeometry x="1355" y="330" width="110" height="30" as="geometry" />
        </mxCell>
        <mxCell id="B9Y0WBPp0b_zdpYN_vk--82" value="Created when&lt;div&gt;UC Instance identified&lt;/div&gt;" style="text;html=1;align=center;verticalAlign=middle;resizable=0;points=[];autosize=1;strokeColor=none;fillColor=none;" parent="1" vertex="1">
          <mxGeometry x="-50" y="270" width="140" height="40" as="geometry" />
        </mxCell>
        <mxCell id="B9Y0WBPp0b_zdpYN_vk--83" value="Used to bootstrap sync -&amp;nbsp;&lt;div&gt;which only supports one UC instance?&lt;/div&gt;" style="text;html=1;align=center;verticalAlign=middle;resizable=0;points=[];autosize=1;strokeColor=none;fillColor=none;" parent="1" vertex="1">
          <mxGeometry x="-100" y="330" width="230" height="40" as="geometry" />
        </mxCell>
        <mxCell id="B9Y0WBPp0b_zdpYN_vk--84" value="Sync operates both at server&lt;div&gt;and catalog level - may need to&lt;/div&gt;&lt;div&gt;split if security requires it&amp;nbsp;&lt;/div&gt;" style="text;html=1;align=center;verticalAlign=middle;resizable=0;points=[];autosize=1;strokeColor=none;fillColor=none;" parent="1" vertex="1">
          <mxGeometry x="-75" y="370" width="190" height="60" as="geometry" />
        </mxCell>
        <mxCell id="B9Y0WBPp0b_zdpYN_vk--85" value="When a catalog is discovered,&lt;div&gt;&amp;nbsp;it creates a software capability for the catalog&lt;/div&gt;&lt;div&gt;and adds it as a catalog target (may just be internal?) with the&lt;/div&gt;&lt;div&gt;metadata collection set appropriately.&lt;/div&gt;" style="text;html=1;align=center;verticalAlign=middle;resizable=0;points=[];autosize=1;strokeColor=none;fillColor=none;" parent="1" vertex="1">
          <mxGeometry x="-155" y="445" width="350" height="70" as="geometry" />
        </mxCell>
        <mxCell id="B9Y0WBPp0b_zdpYN_vk--86" value="AssetSchema" style="text;html=1;align=center;verticalAlign=middle;resizable=0;points=[];autosize=1;strokeColor=none;fillColor=none;" parent="1" vertex="1">
          <mxGeometry x="1191" y="360" width="100" height="30" as="geometry" />
        </mxCell>
        <mxCell id="B9Y0WBPp0b_zdpYN_vk--87" value="This means, if the schema is deleted,&lt;div&gt;&amp;nbsp;the volumes, tables, functions are also&amp;nbsp;&lt;/div&gt;&lt;div&gt;deleted so they are not left orphaned&lt;/div&gt;" style="text;html=1;align=center;verticalAlign=middle;resizable=0;points=[];autosize=1;strokeColor=none;fillColor=none;" parent="1" vertex="1">
          <mxGeometry x="350" y="330" width="230" height="60" as="geometry" />
        </mxCell>
        <mxCell id="B9Y0WBPp0b_zdpYN_vk--88" value="ServerAssetUse" style="text;html=1;align=center;verticalAlign=middle;resizable=0;points=[];autosize=1;strokeColor=none;fillColor=none;" parent="1" vertex="1">
          <mxGeometry x="295" y="168" width="110" height="30" as="geometry" />
        </mxCell>
        <mxCell id="B9Y0WBPp0b_zdpYN_vk--89" value="Supported&lt;div&gt;Software&lt;/div&gt;&lt;div&gt;Capability&lt;/div&gt;" style="text;html=1;align=center;verticalAlign=middle;resizable=0;points=[];autosize=1;strokeColor=none;fillColor=none;" parent="1" vertex="1">
          <mxGeometry x="70" y="130" width="80" height="60" as="geometry" />
        </mxCell>
        <mxCell id="B9Y0WBPp0b_zdpYN_vk--90" value="DataContentForDataSet" style="text;html=1;align=center;verticalAlign=middle;resizable=0;points=[];autosize=1;strokeColor=none;fillColor=none;" parent="1" vertex="1">
          <mxGeometry x="915" y="220" width="150" height="30" as="geometry" />
        </mxCell>
        <mxCell id="B9Y0WBPp0b_zdpYN_vk--91" value="DataContentForDataSet" style="text;html=1;align=center;verticalAlign=middle;resizable=0;points=[];autosize=1;strokeColor=none;fillColor=none;" parent="1" vertex="1">
          <mxGeometry x="1210" y="220" width="150" height="30" as="geometry" />
        </mxCell>
        <mxCell id="J0WbiLdSYBjSvW4OhGUk-1" value="n" style="text;html=1;align=center;verticalAlign=middle;resizable=0;points=[];autosize=1;strokeColor=none;fillColor=none;" vertex="1" parent="1">
          <mxGeometry x="125" y="198" width="30" height="30" as="geometry" />
        </mxCell>
        <mxCell id="J0WbiLdSYBjSvW4OhGUk-2" value="n" style="text;html=1;align=center;verticalAlign=middle;resizable=0;points=[];autosize=1;strokeColor=none;fillColor=none;" vertex="1" parent="1">
          <mxGeometry x="375" y="198" width="30" height="30" as="geometry" />
        </mxCell>
      </root>
    </mxGraphModel>
  </diagram>
  <diagram id="f3CNp9-D4ub4kuOfaZfh" name="integration-connector">
    <mxGraphModel dx="1807" dy="1030" grid="1" gridSize="10" guides="1" tooltips="1" connect="1" arrows="1" fold="1" page="1" pageScale="1" pageWidth="827" pageHeight="1169" math="0" shadow="0">
      <root>
        <mxCell id="0" />
        <mxCell id="1" parent="0" />
        <mxCell id="KCxIwKJGizdFtMyywjY9-1" value="Egeria" style="rounded=0;whiteSpace=wrap;html=1;fillColor=#b0e3e6;strokeColor=#0e8088;verticalAlign=top;shadow=0;sketch=1;curveFitting=1;jiggle=2;" vertex="1" parent="1">
          <mxGeometry x="40" y="117" width="520" height="494" as="geometry" />
        </mxCell>
        <mxCell id="hmDTSakSshSaXi4dn8hp-8" style="edgeStyle=orthogonalEdgeStyle;rounded=0;orthogonalLoop=1;jettySize=auto;html=1;exitX=1;exitY=0.5;exitDx=0;exitDy=0;entryX=0.75;entryY=1;entryDx=0;entryDy=0;" edge="1" parent="1" source="hmDTSakSshSaXi4dn8hp-1" target="hmDTSakSshSaXi4dn8hp-5">
          <mxGeometry relative="1" as="geometry" />
        </mxCell>
        <mxCell id="C4zbueyLhXWqBj662cuS-1" style="edgeStyle=orthogonalEdgeStyle;rounded=0;orthogonalLoop=1;jettySize=auto;html=1;exitX=0.5;exitY=1;exitDx=0;exitDy=0;" edge="1" parent="1" source="hmDTSakSshSaXi4dn8hp-1" target="hmDTSakSshSaXi4dn8hp-2">
          <mxGeometry relative="1" as="geometry" />
        </mxCell>
        <mxCell id="hmDTSakSshSaXi4dn8hp-1" value="OSSUnityCatalogServerSyncConnector" style="rounded=0;whiteSpace=wrap;html=1;fillColor=#d0cee2;strokeColor=#56517e;" vertex="1" parent="1">
          <mxGeometry x="100" y="384" width="290" height="60" as="geometry" />
        </mxCell>
        <mxCell id="hmDTSakSshSaXi4dn8hp-9" style="edgeStyle=orthogonalEdgeStyle;rounded=0;orthogonalLoop=1;jettySize=auto;html=1;exitX=1;exitY=0.5;exitDx=0;exitDy=0;entryX=0.75;entryY=1;entryDx=0;entryDy=0;" edge="1" parent="1" source="hmDTSakSshSaXi4dn8hp-2" target="hmDTSakSshSaXi4dn8hp-5">
          <mxGeometry relative="1" as="geometry" />
        </mxCell>
        <mxCell id="hmDTSakSshSaXi4dn8hp-2" value="OSSUnityCatalogInsideCatalogSyncConnector" style="rounded=0;whiteSpace=wrap;html=1;fillColor=#d0cee2;strokeColor=#56517e;" vertex="1" parent="1">
          <mxGeometry x="100" y="474" width="290" height="60" as="geometry" />
        </mxCell>
        <mxCell id="hmDTSakSshSaXi4dn8hp-6" style="edgeStyle=orthogonalEdgeStyle;rounded=0;orthogonalLoop=1;jettySize=auto;html=1;exitX=1;exitY=0.5;exitDx=0;exitDy=0;entryX=0.25;entryY=1;entryDx=0;entryDy=0;" edge="1" parent="1" source="hmDTSakSshSaXi4dn8hp-3" target="hmDTSakSshSaXi4dn8hp-5">
          <mxGeometry relative="1" as="geometry" />
        </mxCell>
        <mxCell id="hmDTSakSshSaXi4dn8hp-3" value="OSSUnityCatalogServerSurveyService" style="rounded=0;whiteSpace=wrap;html=1;fillColor=#fad7ac;strokeColor=#b46504;" vertex="1" parent="1">
          <mxGeometry x="100" y="194" width="290" height="60" as="geometry" />
        </mxCell>
        <mxCell id="hmDTSakSshSaXi4dn8hp-7" style="edgeStyle=orthogonalEdgeStyle;rounded=0;orthogonalLoop=1;jettySize=auto;html=1;exitX=1;exitY=0.5;exitDx=0;exitDy=0;entryX=0.25;entryY=1;entryDx=0;entryDy=0;" edge="1" parent="1" source="hmDTSakSshSaXi4dn8hp-4" target="hmDTSakSshSaXi4dn8hp-5">
          <mxGeometry relative="1" as="geometry" />
        </mxCell>
        <mxCell id="hmDTSakSshSaXi4dn8hp-4" value="OSSUnityCatalogInsideCatalogSurveyService" style="rounded=0;whiteSpace=wrap;html=1;fillColor=#fad7ac;strokeColor=#b46504;" vertex="1" parent="1">
          <mxGeometry x="100" y="284" width="290" height="60" as="geometry" />
        </mxCell>
        <mxCell id="PqQVSQCSiO2SRTACot5u-56" style="edgeStyle=orthogonalEdgeStyle;rounded=0;orthogonalLoop=1;jettySize=auto;html=1;exitX=0.5;exitY=0;exitDx=0;exitDy=0;" edge="1" parent="1" source="hmDTSakSshSaXi4dn8hp-5" target="PqQVSQCSiO2SRTACot5u-2">
          <mxGeometry relative="1" as="geometry" />
        </mxCell>
        <mxCell id="hmDTSakSshSaXi4dn8hp-5" value="OSSUnityCatalogResourceConnector" style="rounded=0;whiteSpace=wrap;html=1;rotation=90;fillColor=#bac8d3;strokeColor=#23445d;" vertex="1" parent="1">
          <mxGeometry x="308" y="334" width="332" height="60" as="geometry" />
        </mxCell>
        <mxCell id="PqQVSQCSiO2SRTACot5u-1" value="Delta Lake" style="rounded=0;whiteSpace=wrap;html=1;verticalAlign=top;fillColor=#cce5ff;strokeColor=#36393d;" vertex="1" parent="1">
          <mxGeometry x="964.75" y="228.62" width="276" height="270" as="geometry" />
        </mxCell>
        <mxCell id="PqQVSQCSiO2SRTACot5u-2" value="Unity Catalog" style="rounded=0;whiteSpace=wrap;html=1;verticalAlign=top;fillColor=#d5e8d4;strokeColor=#82b366;" vertex="1" parent="1">
          <mxGeometry x="640.75" y="228.75" width="250" height="270" as="geometry" />
        </mxCell>
        <mxCell id="PqQVSQCSiO2SRTACot5u-3" value="Catalog" style="rounded=1;whiteSpace=wrap;html=1;verticalAlign=top;fillColor=#f5f5f5;fontColor=#333333;strokeColor=#666666;" vertex="1" parent="1">
          <mxGeometry x="660.75" y="258.75" width="215" height="100" as="geometry" />
        </mxCell>
        <mxCell id="PqQVSQCSiO2SRTACot5u-4" value="Schema" style="rounded=0;whiteSpace=wrap;html=1;rotation=90;verticalAlign=top;fillColor=#e1d5e7;strokeColor=#9673a6;" vertex="1" parent="1">
          <mxGeometry x="750" y="220" width="53" height="177.5" as="geometry" />
        </mxCell>
        <mxCell id="PqQVSQCSiO2SRTACot5u-5" value="Schema" style="rounded=0;whiteSpace=wrap;html=1;rotation=90;verticalAlign=top;fillColor=#e1d5e7;strokeColor=#9673a6;" vertex="1" parent="1">
          <mxGeometry x="730.5" y="235" width="53" height="167.5" as="geometry" />
        </mxCell>
        <mxCell id="PqQVSQCSiO2SRTACot5u-6" value="" style="shape=internalStorage;whiteSpace=wrap;html=1;backgroundOutline=1;dx=12;dy=6;" vertex="1" parent="1">
          <mxGeometry x="678.5" y="295.75" width="32" height="26" as="geometry" />
        </mxCell>
        <mxCell id="PqQVSQCSiO2SRTACot5u-7" value="" style="shape=internalStorage;whiteSpace=wrap;html=1;backgroundOutline=1;dx=12;dy=6;" vertex="1" parent="1">
          <mxGeometry x="688.5" y="305.75" width="32" height="26" as="geometry" />
        </mxCell>
        <mxCell id="PqQVSQCSiO2SRTACot5u-8" value="" style="shape=internalStorage;whiteSpace=wrap;html=1;backgroundOutline=1;dx=12;dy=6;" vertex="1" parent="1">
          <mxGeometry x="698.5" y="315.75" width="32" height="26" as="geometry" />
        </mxCell>
        <mxCell id="PqQVSQCSiO2SRTACot5u-9" value="" style="shape=note;whiteSpace=wrap;html=1;backgroundOutline=1;darkOpacity=0.05;size=11;" vertex="1" parent="1">
          <mxGeometry x="770.75" y="308.25" width="25" height="30" as="geometry" />
        </mxCell>
        <mxCell id="PqQVSQCSiO2SRTACot5u-10" value="" style="shape=note;whiteSpace=wrap;html=1;backgroundOutline=1;darkOpacity=0.05;size=11;" vertex="1" parent="1">
          <mxGeometry x="777.75" y="305.25" width="25" height="30" as="geometry" />
        </mxCell>
        <mxCell id="PqQVSQCSiO2SRTACot5u-11" value="" style="shape=note;whiteSpace=wrap;html=1;backgroundOutline=1;darkOpacity=0.05;size=11;" vertex="1" parent="1">
          <mxGeometry x="784.75" y="302.25" width="25" height="30" as="geometry" />
        </mxCell>
        <mxCell id="PqQVSQCSiO2SRTACot5u-12" value="" style="shape=note;whiteSpace=wrap;html=1;backgroundOutline=1;darkOpacity=0.05;size=11;" vertex="1" parent="1">
          <mxGeometry x="791.75" y="299.25" width="25" height="30" as="geometry" />
        </mxCell>
        <mxCell id="PqQVSQCSiO2SRTACot5u-13" value="" style="shape=process;whiteSpace=wrap;html=1;backgroundOutline=1;size=0.2;" vertex="1" parent="1">
          <mxGeometry x="736.75" y="299.25" width="30" height="15" as="geometry" />
        </mxCell>
        <mxCell id="PqQVSQCSiO2SRTACot5u-14" value="Catalog" style="rounded=1;whiteSpace=wrap;html=1;verticalAlign=top;fillColor=#f5f5f5;fontColor=#333333;strokeColor=#666666;" vertex="1" parent="1">
          <mxGeometry x="660.75" y="374" width="215" height="100" as="geometry" />
        </mxCell>
        <mxCell id="PqQVSQCSiO2SRTACot5u-15" value="Schema" style="rounded=0;whiteSpace=wrap;html=1;rotation=90;verticalAlign=top;fillColor=#e1d5e7;strokeColor=#9673a6;" vertex="1" parent="1">
          <mxGeometry x="750" y="335.25" width="53" height="177.5" as="geometry" />
        </mxCell>
        <mxCell id="PqQVSQCSiO2SRTACot5u-16" value="Schema" style="rounded=0;whiteSpace=wrap;html=1;rotation=90;verticalAlign=top;fillColor=#e1d5e7;strokeColor=#9673a6;" vertex="1" parent="1">
          <mxGeometry x="730.5" y="350.25" width="53" height="167.5" as="geometry" />
        </mxCell>
        <mxCell id="PqQVSQCSiO2SRTACot5u-17" value="" style="shape=internalStorage;whiteSpace=wrap;html=1;backgroundOutline=1;dx=12;dy=6;" vertex="1" parent="1">
          <mxGeometry x="678.5" y="411" width="32" height="26" as="geometry" />
        </mxCell>
        <mxCell id="PqQVSQCSiO2SRTACot5u-18" value="" style="shape=internalStorage;whiteSpace=wrap;html=1;backgroundOutline=1;dx=12;dy=6;" vertex="1" parent="1">
          <mxGeometry x="688.5" y="421" width="32" height="26" as="geometry" />
        </mxCell>
        <mxCell id="PqQVSQCSiO2SRTACot5u-19" value="" style="shape=internalStorage;whiteSpace=wrap;html=1;backgroundOutline=1;dx=12;dy=6;" vertex="1" parent="1">
          <mxGeometry x="698.5" y="431" width="32" height="26" as="geometry" />
        </mxCell>
        <mxCell id="PqQVSQCSiO2SRTACot5u-20" value="" style="shape=note;whiteSpace=wrap;html=1;backgroundOutline=1;darkOpacity=0.05;size=11;" vertex="1" parent="1">
          <mxGeometry x="770.75" y="423.5" width="25" height="30" as="geometry" />
        </mxCell>
        <mxCell id="PqQVSQCSiO2SRTACot5u-21" value="" style="shape=note;whiteSpace=wrap;html=1;backgroundOutline=1;darkOpacity=0.05;size=11;" vertex="1" parent="1">
          <mxGeometry x="777.75" y="420.5" width="25" height="30" as="geometry" />
        </mxCell>
        <mxCell id="PqQVSQCSiO2SRTACot5u-22" value="" style="shape=note;whiteSpace=wrap;html=1;backgroundOutline=1;darkOpacity=0.05;size=11;" vertex="1" parent="1">
          <mxGeometry x="784.75" y="417.5" width="25" height="30" as="geometry" />
        </mxCell>
        <mxCell id="PqQVSQCSiO2SRTACot5u-23" value="" style="shape=note;whiteSpace=wrap;html=1;backgroundOutline=1;darkOpacity=0.05;size=11;" vertex="1" parent="1">
          <mxGeometry x="791.75" y="414.5" width="25" height="30" as="geometry" />
        </mxCell>
        <mxCell id="PqQVSQCSiO2SRTACot5u-24" value="" style="shape=process;whiteSpace=wrap;html=1;backgroundOutline=1;size=0.2;" vertex="1" parent="1">
          <mxGeometry x="736.75" y="414.5" width="30" height="15" as="geometry" />
        </mxCell>
        <mxCell id="PqQVSQCSiO2SRTACot5u-25" value="parquet files" style="shape=document;whiteSpace=wrap;html=1;boundedLbl=1;" vertex="1" parent="1">
          <mxGeometry x="1085.75" y="403.87" width="80" height="40" as="geometry" />
        </mxCell>
        <mxCell id="PqQVSQCSiO2SRTACot5u-26" value="parquet files" style="shape=document;whiteSpace=wrap;html=1;boundedLbl=1;" vertex="1" parent="1">
          <mxGeometry x="1095.75" y="413.87" width="80" height="40" as="geometry" />
        </mxCell>
        <mxCell id="PqQVSQCSiO2SRTACot5u-27" value="parquet files" style="shape=document;whiteSpace=wrap;html=1;boundedLbl=1;" vertex="1" parent="1">
          <mxGeometry x="1105.75" y="423.87" width="80" height="40" as="geometry" />
        </mxCell>
        <mxCell id="PqQVSQCSiO2SRTACot5u-28" value="parquet files" style="shape=document;whiteSpace=wrap;html=1;boundedLbl=1;" vertex="1" parent="1">
          <mxGeometry x="1115.75" y="433.87" width="80" height="40" as="geometry" />
        </mxCell>
        <mxCell id="PqQVSQCSiO2SRTACot5u-29" value="parquet files" style="shape=document;whiteSpace=wrap;html=1;boundedLbl=1;" vertex="1" parent="1">
          <mxGeometry x="1090.75" y="343.87" width="80" height="40" as="geometry" />
        </mxCell>
        <mxCell id="PqQVSQCSiO2SRTACot5u-30" value="parquet files" style="shape=document;whiteSpace=wrap;html=1;boundedLbl=1;" vertex="1" parent="1">
          <mxGeometry x="1100.75" y="353.87" width="80" height="40" as="geometry" />
        </mxCell>
        <mxCell id="PqQVSQCSiO2SRTACot5u-31" value="parquet files" style="shape=document;whiteSpace=wrap;html=1;boundedLbl=1;" vertex="1" parent="1">
          <mxGeometry x="1110.75" y="363.87" width="80" height="40" as="geometry" />
        </mxCell>
        <mxCell id="PqQVSQCSiO2SRTACot5u-32" value="parquet files" style="shape=document;whiteSpace=wrap;html=1;boundedLbl=1;" vertex="1" parent="1">
          <mxGeometry x="1120.75" y="373.87" width="80" height="40" as="geometry" />
        </mxCell>
        <mxCell id="PqQVSQCSiO2SRTACot5u-33" value="parquet files" style="shape=document;whiteSpace=wrap;html=1;boundedLbl=1;" vertex="1" parent="1">
          <mxGeometry x="1087.75" y="280.87" width="80" height="40" as="geometry" />
        </mxCell>
        <mxCell id="PqQVSQCSiO2SRTACot5u-34" value="parquet files" style="shape=document;whiteSpace=wrap;html=1;boundedLbl=1;" vertex="1" parent="1">
          <mxGeometry x="1097.75" y="290.87" width="80" height="40" as="geometry" />
        </mxCell>
        <mxCell id="PqQVSQCSiO2SRTACot5u-35" value="parquet files" style="shape=document;whiteSpace=wrap;html=1;boundedLbl=1;" vertex="1" parent="1">
          <mxGeometry x="1107.75" y="300.87" width="80" height="40" as="geometry" />
        </mxCell>
        <mxCell id="PqQVSQCSiO2SRTACot5u-36" value="parquet files" style="shape=document;whiteSpace=wrap;html=1;boundedLbl=1;" vertex="1" parent="1">
          <mxGeometry x="1117.75" y="310.87" width="80" height="40" as="geometry" />
        </mxCell>
        <mxCell id="PqQVSQCSiO2SRTACot5u-37" value="parquet files" style="shape=document;whiteSpace=wrap;html=1;boundedLbl=1;" vertex="1" parent="1">
          <mxGeometry x="990.75" y="403.87" width="80" height="40" as="geometry" />
        </mxCell>
        <mxCell id="PqQVSQCSiO2SRTACot5u-38" value="parquet files" style="shape=document;whiteSpace=wrap;html=1;boundedLbl=1;" vertex="1" parent="1">
          <mxGeometry x="1000.75" y="413.87" width="80" height="40" as="geometry" />
        </mxCell>
        <mxCell id="PqQVSQCSiO2SRTACot5u-39" value="parquet files" style="shape=document;whiteSpace=wrap;html=1;boundedLbl=1;" vertex="1" parent="1">
          <mxGeometry x="1010.75" y="423.87" width="80" height="40" as="geometry" />
        </mxCell>
        <mxCell id="PqQVSQCSiO2SRTACot5u-40" value="parquet files" style="shape=document;whiteSpace=wrap;html=1;boundedLbl=1;" vertex="1" parent="1">
          <mxGeometry x="1020.75" y="433.87" width="80" height="40" as="geometry" />
        </mxCell>
        <mxCell id="PqQVSQCSiO2SRTACot5u-41" value="parquet files" style="shape=document;whiteSpace=wrap;html=1;boundedLbl=1;" vertex="1" parent="1">
          <mxGeometry x="995.75" y="343.87" width="80" height="40" as="geometry" />
        </mxCell>
        <mxCell id="PqQVSQCSiO2SRTACot5u-42" value="parquet files" style="shape=document;whiteSpace=wrap;html=1;boundedLbl=1;" vertex="1" parent="1">
          <mxGeometry x="1005.75" y="353.87" width="80" height="40" as="geometry" />
        </mxCell>
        <mxCell id="PqQVSQCSiO2SRTACot5u-43" value="parquet files" style="shape=document;whiteSpace=wrap;html=1;boundedLbl=1;" vertex="1" parent="1">
          <mxGeometry x="1015.75" y="363.87" width="80" height="40" as="geometry" />
        </mxCell>
        <mxCell id="PqQVSQCSiO2SRTACot5u-44" value="parquet files" style="shape=document;whiteSpace=wrap;html=1;boundedLbl=1;" vertex="1" parent="1">
          <mxGeometry x="1025.75" y="373.87" width="80" height="40" as="geometry" />
        </mxCell>
        <mxCell id="PqQVSQCSiO2SRTACot5u-45" value="parquet files" style="shape=document;whiteSpace=wrap;html=1;boundedLbl=1;" vertex="1" parent="1">
          <mxGeometry x="992.75" y="280.87" width="80" height="40" as="geometry" />
        </mxCell>
        <mxCell id="PqQVSQCSiO2SRTACot5u-46" value="parquet files" style="shape=document;whiteSpace=wrap;html=1;boundedLbl=1;" vertex="1" parent="1">
          <mxGeometry x="1002.75" y="290.87" width="80" height="40" as="geometry" />
        </mxCell>
        <mxCell id="PqQVSQCSiO2SRTACot5u-47" value="parquet files" style="shape=document;whiteSpace=wrap;html=1;boundedLbl=1;" vertex="1" parent="1">
          <mxGeometry x="1012.75" y="300.87" width="80" height="40" as="geometry" />
        </mxCell>
        <mxCell id="PqQVSQCSiO2SRTACot5u-48" value="parquet files" style="shape=document;whiteSpace=wrap;html=1;boundedLbl=1;" vertex="1" parent="1">
          <mxGeometry x="1022.75" y="310.87" width="80" height="40" as="geometry" />
        </mxCell>
        <mxCell id="PqQVSQCSiO2SRTACot5u-49" value="" style="shape=flexArrow;endArrow=classic;startArrow=classic;html=1;rounded=0;exitX=1;exitY=0.5;exitDx=0;exitDy=0;entryX=0;entryY=0.5;entryDx=0;entryDy=0;fillColor=#a20025;strokeColor=#6F0000;" edge="1" parent="1" source="PqQVSQCSiO2SRTACot5u-2" target="PqQVSQCSiO2SRTACot5u-1">
          <mxGeometry width="100" height="100" relative="1" as="geometry">
            <mxPoint x="940.75" y="358.62" as="sourcePoint" />
            <mxPoint x="1210.75" y="458.62" as="targetPoint" />
          </mxGeometry>
        </mxCell>
        <mxCell id="PqQVSQCSiO2SRTACot5u-50" value="" style="shape=callout;whiteSpace=wrap;html=1;perimeter=calloutPerimeter;fillColor=#ffff88;strokeColor=#36393d;rotation=-180;size=27;position=0.32;" vertex="1" parent="1">
          <mxGeometry x="759" y="457" width="76.5" height="81.62" as="geometry" />
        </mxCell>
        <mxCell id="PqQVSQCSiO2SRTACot5u-51" value="" style="shape=callout;whiteSpace=wrap;html=1;perimeter=calloutPerimeter;fillColor=#ffff88;strokeColor=#36393d;rotation=-180;size=122;position=0.44;" vertex="1" parent="1">
          <mxGeometry x="707" y="430.24" width="76.5" height="190" as="geometry" />
        </mxCell>
        <mxCell id="PqQVSQCSiO2SRTACot5u-52" value="" style="shape=callout;whiteSpace=wrap;html=1;perimeter=calloutPerimeter;fillColor=#ffff88;strokeColor=#36393d;rotation=-180;size=27;position=0.32;position2=0.11;" vertex="1" parent="1">
          <mxGeometry x="622" y="444.5" width="76.5" height="74.75" as="geometry" />
        </mxCell>
        <mxCell id="PqQVSQCSiO2SRTACot5u-53" value="Tables" style="text;html=1;align=center;verticalAlign=middle;resizable=0;points=[];autosize=1;strokeColor=none;fillColor=none;" vertex="1" parent="1">
          <mxGeometry x="630.25" y="482.75" width="60" height="30" as="geometry" />
        </mxCell>
        <mxCell id="PqQVSQCSiO2SRTACot5u-54" value="Functions" style="text;html=1;align=center;verticalAlign=middle;resizable=0;points=[];autosize=1;strokeColor=none;fillColor=none;" vertex="1" parent="1">
          <mxGeometry x="703.5" y="568.62" width="80" height="30" as="geometry" />
        </mxCell>
        <mxCell id="PqQVSQCSiO2SRTACot5u-55" value="Volumes" style="text;html=1;align=center;verticalAlign=middle;resizable=0;points=[];autosize=1;strokeColor=none;fillColor=none;" vertex="1" parent="1">
          <mxGeometry x="759" y="498.62" width="70" height="30" as="geometry" />
        </mxCell>
      </root>
    </mxGraphModel>
  </diagram>
  <diagram id="_YRAokTJL-fQf0pK_Juc" name="scenarios">
    <mxGraphModel dx="1500" dy="1030" grid="1" gridSize="10" guides="1" tooltips="1" connect="1" arrows="1" fold="1" page="1" pageScale="1" pageWidth="827" pageHeight="1169" math="0" shadow="0">
      <root>
        <mxCell id="0" />
        <mxCell id="1" parent="0" />
        <mxCell id="MHMaFlSaZDRWGOKKK15M-1" value="Egeria" style="rounded=0;whiteSpace=wrap;html=1;fillColor=#b0e3e6;strokeColor=#0e8088;verticalAlign=top;shadow=0;sketch=1;curveFitting=1;jiggle=2;" vertex="1" parent="1">
          <mxGeometry x="40" y="660" width="700" height="380" as="geometry" />
        </mxCell>
        <mxCell id="MHMaFlSaZDRWGOKKK15M-2" value="" style="ellipse;shape=cloud;whiteSpace=wrap;html=1;verticalAlign=top;" vertex="1" parent="1">
          <mxGeometry x="230.25" y="710" width="400" height="300" as="geometry" />
        </mxCell>
        <mxCell id="MHMaFlSaZDRWGOKKK15M-3" value="DataFolder" style="rounded=1;whiteSpace=wrap;html=1;" vertex="1" parent="1">
          <mxGeometry x="364" y="835.75" width="120" height="60" as="geometry" />
        </mxCell>
        <mxCell id="MHMaFlSaZDRWGOKKK15M-4" style="edgeStyle=orthogonalEdgeStyle;rounded=0;orthogonalLoop=1;jettySize=auto;html=1;exitX=1;exitY=0.5;exitDx=0;exitDy=0;" edge="1" parent="1" source="MHMaFlSaZDRWGOKKK15M-5" target="MHMaFlSaZDRWGOKKK15M-3">
          <mxGeometry relative="1" as="geometry" />
        </mxCell>
        <mxCell id="MHMaFlSaZDRWGOKKK15M-5" value="DataFolder" style="rounded=1;whiteSpace=wrap;html=1;" vertex="1" parent="1">
          <mxGeometry x="70" y="835.75" width="120" height="60" as="geometry" />
        </mxCell>
        <mxCell id="MHMaFlSaZDRWGOKKK15M-6" value="Unity Catalog" style="rounded=0;whiteSpace=wrap;html=1;verticalAlign=top;fillColor=#d5e8d4;strokeColor=#82b366;" vertex="1" parent="1">
          <mxGeometry x="925.75" y="748.75" width="250" height="270" as="geometry" />
        </mxCell>
        <mxCell id="MHMaFlSaZDRWGOKKK15M-7" value="Catalog" style="rounded=1;whiteSpace=wrap;html=1;verticalAlign=top;fillColor=#f5f5f5;fontColor=#333333;strokeColor=#666666;" vertex="1" parent="1">
          <mxGeometry x="945.75" y="778.75" width="215" height="100" as="geometry" />
        </mxCell>
        <mxCell id="MHMaFlSaZDRWGOKKK15M-8" value="Schema" style="rounded=0;whiteSpace=wrap;html=1;rotation=90;verticalAlign=top;fillColor=#e1d5e7;strokeColor=#9673a6;" vertex="1" parent="1">
          <mxGeometry x="1035" y="740" width="53" height="177.5" as="geometry" />
        </mxCell>
        <mxCell id="MHMaFlSaZDRWGOKKK15M-9" value="Schema" style="rounded=0;whiteSpace=wrap;html=1;rotation=90;verticalAlign=top;fillColor=#e1d5e7;strokeColor=#9673a6;" vertex="1" parent="1">
          <mxGeometry x="1015.5" y="755" width="53" height="167.5" as="geometry" />
        </mxCell>
        <mxCell id="MHMaFlSaZDRWGOKKK15M-10" value="" style="shape=internalStorage;whiteSpace=wrap;html=1;backgroundOutline=1;dx=12;dy=6;" vertex="1" parent="1">
          <mxGeometry x="963.5" y="815.75" width="32" height="26" as="geometry" />
        </mxCell>
        <mxCell id="MHMaFlSaZDRWGOKKK15M-11" value="" style="shape=internalStorage;whiteSpace=wrap;html=1;backgroundOutline=1;dx=12;dy=6;" vertex="1" parent="1">
          <mxGeometry x="973.5" y="825.75" width="32" height="26" as="geometry" />
        </mxCell>
        <mxCell id="MHMaFlSaZDRWGOKKK15M-12" value="" style="shape=internalStorage;whiteSpace=wrap;html=1;backgroundOutline=1;dx=12;dy=6;" vertex="1" parent="1">
          <mxGeometry x="983.5" y="835.75" width="32" height="26" as="geometry" />
        </mxCell>
        <mxCell id="MHMaFlSaZDRWGOKKK15M-13" value="" style="shape=note;whiteSpace=wrap;html=1;backgroundOutline=1;darkOpacity=0.05;size=11;" vertex="1" parent="1">
          <mxGeometry x="1055.75" y="828.25" width="25" height="30" as="geometry" />
        </mxCell>
        <mxCell id="MHMaFlSaZDRWGOKKK15M-14" value="" style="shape=note;whiteSpace=wrap;html=1;backgroundOutline=1;darkOpacity=0.05;size=11;" vertex="1" parent="1">
          <mxGeometry x="1062.75" y="825.25" width="25" height="30" as="geometry" />
        </mxCell>
        <mxCell id="MHMaFlSaZDRWGOKKK15M-15" value="" style="shape=note;whiteSpace=wrap;html=1;backgroundOutline=1;darkOpacity=0.05;size=11;" vertex="1" parent="1">
          <mxGeometry x="1069.75" y="822.25" width="25" height="30" as="geometry" />
        </mxCell>
        <mxCell id="MHMaFlSaZDRWGOKKK15M-16" value="" style="shape=note;whiteSpace=wrap;html=1;backgroundOutline=1;darkOpacity=0.05;size=11;" vertex="1" parent="1">
          <mxGeometry x="1076.75" y="819.25" width="25" height="30" as="geometry" />
        </mxCell>
        <mxCell id="MHMaFlSaZDRWGOKKK15M-17" value="" style="shape=process;whiteSpace=wrap;html=1;backgroundOutline=1;size=0.2;" vertex="1" parent="1">
          <mxGeometry x="1021.75" y="819.25" width="30" height="15" as="geometry" />
        </mxCell>
        <mxCell id="MHMaFlSaZDRWGOKKK15M-18" value="Catalog" style="rounded=1;whiteSpace=wrap;html=1;verticalAlign=top;fillColor=#f5f5f5;fontColor=#333333;strokeColor=#666666;" vertex="1" parent="1">
          <mxGeometry x="945.75" y="894" width="215" height="100" as="geometry" />
        </mxCell>
        <mxCell id="MHMaFlSaZDRWGOKKK15M-19" value="Schema" style="rounded=0;whiteSpace=wrap;html=1;rotation=90;verticalAlign=top;fillColor=#e1d5e7;strokeColor=#9673a6;" vertex="1" parent="1">
          <mxGeometry x="1035" y="855.25" width="53" height="177.5" as="geometry" />
        </mxCell>
        <mxCell id="MHMaFlSaZDRWGOKKK15M-20" value="Schema" style="rounded=0;whiteSpace=wrap;html=1;rotation=90;verticalAlign=top;fillColor=#e1d5e7;strokeColor=#9673a6;" vertex="1" parent="1">
          <mxGeometry x="1015.5" y="870.25" width="53" height="167.5" as="geometry" />
        </mxCell>
        <mxCell id="MHMaFlSaZDRWGOKKK15M-21" value="" style="shape=internalStorage;whiteSpace=wrap;html=1;backgroundOutline=1;dx=12;dy=6;" vertex="1" parent="1">
          <mxGeometry x="963.5" y="931" width="32" height="26" as="geometry" />
        </mxCell>
        <mxCell id="MHMaFlSaZDRWGOKKK15M-22" value="" style="shape=internalStorage;whiteSpace=wrap;html=1;backgroundOutline=1;dx=12;dy=6;" vertex="1" parent="1">
          <mxGeometry x="973.5" y="941" width="32" height="26" as="geometry" />
        </mxCell>
        <mxCell id="MHMaFlSaZDRWGOKKK15M-23" value="" style="shape=internalStorage;whiteSpace=wrap;html=1;backgroundOutline=1;dx=12;dy=6;" vertex="1" parent="1">
          <mxGeometry x="983.5" y="951" width="32" height="26" as="geometry" />
        </mxCell>
        <mxCell id="MHMaFlSaZDRWGOKKK15M-24" value="" style="shape=note;whiteSpace=wrap;html=1;backgroundOutline=1;darkOpacity=0.05;size=11;" vertex="1" parent="1">
          <mxGeometry x="1055.75" y="943.5" width="25" height="30" as="geometry" />
        </mxCell>
        <mxCell id="MHMaFlSaZDRWGOKKK15M-25" value="" style="shape=note;whiteSpace=wrap;html=1;backgroundOutline=1;darkOpacity=0.05;size=11;" vertex="1" parent="1">
          <mxGeometry x="1062.75" y="940.5" width="25" height="30" as="geometry" />
        </mxCell>
        <mxCell id="MHMaFlSaZDRWGOKKK15M-26" value="" style="shape=note;whiteSpace=wrap;html=1;backgroundOutline=1;darkOpacity=0.05;size=11;" vertex="1" parent="1">
          <mxGeometry x="1069.75" y="937.5" width="25" height="30" as="geometry" />
        </mxCell>
        <mxCell id="MHMaFlSaZDRWGOKKK15M-27" value="" style="shape=note;whiteSpace=wrap;html=1;backgroundOutline=1;darkOpacity=0.05;size=11;" vertex="1" parent="1">
          <mxGeometry x="1076.75" y="934.5" width="25" height="30" as="geometry" />
        </mxCell>
        <mxCell id="MHMaFlSaZDRWGOKKK15M-28" value="" style="shape=process;whiteSpace=wrap;html=1;backgroundOutline=1;size=0.2;" vertex="1" parent="1">
          <mxGeometry x="1021.75" y="934.5" width="30" height="15" as="geometry" />
        </mxCell>
        <mxCell id="MHMaFlSaZDRWGOKKK15M-29" value="" style="shape=flexArrow;endArrow=classic;html=1;rounded=0;entryX=0.25;entryY=1;entryDx=0;entryDy=0;fillColor=default;" edge="1" parent="1" target="MHMaFlSaZDRWGOKKK15M-3">
          <mxGeometry width="50" height="50" relative="1" as="geometry">
            <mxPoint x="394" y="1100" as="sourcePoint" />
            <mxPoint x="550" y="630" as="targetPoint" />
          </mxGeometry>
        </mxCell>
        <mxCell id="MHMaFlSaZDRWGOKKK15M-30" value="" style="shape=flexArrow;endArrow=classic;html=1;rounded=0;fillColor=default;exitX=1;exitY=0.5;exitDx=0;exitDy=0;entryX=-0.007;entryY=0.419;entryDx=0;entryDy=0;entryPerimeter=0;" edge="1" parent="1" target="MHMaFlSaZDRWGOKKK15M-6" source="MHMaFlSaZDRWGOKKK15M-3">
          <mxGeometry width="50" height="50" relative="1" as="geometry">
            <mxPoint x="920" y="851" as="sourcePoint" />
            <mxPoint x="850" y="620" as="targetPoint" />
          </mxGeometry>
        </mxCell>
        <mxCell id="MHMaFlSaZDRWGOKKK15M-31" value="Load" style="text;html=1;align=center;verticalAlign=middle;resizable=0;points=[];autosize=1;strokeColor=none;fillColor=none;" vertex="1" parent="1">
          <mxGeometry x="760" y="823.75" width="50" height="30" as="geometry" />
        </mxCell>
        <mxCell id="MHMaFlSaZDRWGOKKK15M-32" value="" style="shape=flexArrow;endArrow=classic;html=1;rounded=0;fillColor=default;entryX=0.75;entryY=1;entryDx=0;entryDy=0;" edge="1" parent="1" target="MHMaFlSaZDRWGOKKK15M-3">
          <mxGeometry width="50" height="50" relative="1" as="geometry">
            <mxPoint x="920" y="940" as="sourcePoint" />
            <mxPoint x="920" y="940" as="targetPoint" />
            <Array as="points">
              <mxPoint x="454" y="940" />
            </Array>
          </mxGeometry>
        </mxCell>
        <mxCell id="MHMaFlSaZDRWGOKKK15M-33" value="Create" style="text;html=1;align=center;verticalAlign=middle;resizable=0;points=[];autosize=1;strokeColor=none;fillColor=none;" vertex="1" parent="1">
          <mxGeometry x="400.25" y="1058" width="60" height="30" as="geometry" />
        </mxCell>
        <mxCell id="MHMaFlSaZDRWGOKKK15M-34" value="Update" style="text;html=1;align=center;verticalAlign=middle;resizable=0;points=[];autosize=1;strokeColor=none;fillColor=none;" vertex="1" parent="1">
          <mxGeometry x="760" y="907.5" width="60" height="30" as="geometry" />
        </mxCell>
        <mxCell id="MHMaFlSaZDRWGOKKK15M-35" value="&lt;div style=&quot;forced-color-adjust: none; color: rgb(0, 0, 0); font-family: Helvetica; font-size: 12px; font-style: normal; font-variant-ligatures: normal; font-variant-caps: normal; font-weight: 400; letter-spacing: normal; orphans: 2; text-align: center; text-indent: 0px; text-transform: none; widows: 2; word-spacing: 0px; -webkit-text-stroke-width: 0px; white-space: normal; background-color: rgb(251, 251, 251); text-decoration-thickness: initial; text-decoration-style: initial; text-decoration-color: initial;&quot;&gt;UnityCatalog&#39;s&lt;br&gt;&lt;/div&gt;&lt;div style=&quot;forced-color-adjust: none; color: rgb(0, 0, 0); font-family: Helvetica; font-size: 12px; font-style: normal; font-variant-ligatures: normal; font-variant-caps: normal; font-weight: 400; letter-spacing: normal; orphans: 2; text-align: center; text-indent: 0px; text-transform: none; widows: 2; word-spacing: 0px; -webkit-text-stroke-width: 0px; white-space: normal; background-color: rgb(251, 251, 251); text-decoration-thickness: initial; text-decoration-style: initial; text-decoration-color: initial;&quot;&gt;Metadata Collection&lt;/div&gt;" style="text;whiteSpace=wrap;html=1;" vertex="1" parent="1">
          <mxGeometry x="360.25" y="758" width="140" height="50" as="geometry" />
        </mxCell>
        <mxCell id="MHMaFlSaZDRWGOKKK15M-36" value="Egeria" style="rounded=0;whiteSpace=wrap;html=1;fillColor=#b0e3e6;strokeColor=#0e8088;verticalAlign=top;shadow=0;sketch=1;curveFitting=1;jiggle=2;" vertex="1" parent="1">
          <mxGeometry x="40" y="80" width="700" height="380" as="geometry" />
        </mxCell>
        <mxCell id="MHMaFlSaZDRWGOKKK15M-37" value="" style="ellipse;shape=cloud;whiteSpace=wrap;html=1;verticalAlign=top;" vertex="1" parent="1">
          <mxGeometry x="230.25" y="130" width="400" height="300" as="geometry" />
        </mxCell>
        <mxCell id="MHMaFlSaZDRWGOKKK15M-38" value="DataFolder" style="rounded=1;whiteSpace=wrap;html=1;" vertex="1" parent="1">
          <mxGeometry x="364" y="255.75" width="120" height="60" as="geometry" />
        </mxCell>
        <mxCell id="MHMaFlSaZDRWGOKKK15M-39" style="edgeStyle=orthogonalEdgeStyle;rounded=0;orthogonalLoop=1;jettySize=auto;html=1;exitX=1;exitY=0.5;exitDx=0;exitDy=0;" edge="1" parent="1" source="MHMaFlSaZDRWGOKKK15M-40" target="MHMaFlSaZDRWGOKKK15M-38">
          <mxGeometry relative="1" as="geometry" />
        </mxCell>
        <mxCell id="MHMaFlSaZDRWGOKKK15M-40" value="DataFolder" style="rounded=1;whiteSpace=wrap;html=1;" vertex="1" parent="1">
          <mxGeometry x="70" y="255.75" width="120" height="60" as="geometry" />
        </mxCell>
        <mxCell id="MHMaFlSaZDRWGOKKK15M-41" value="Unity Catalog" style="rounded=0;whiteSpace=wrap;html=1;verticalAlign=top;fillColor=#d5e8d4;strokeColor=#82b366;" vertex="1" parent="1">
          <mxGeometry x="925.75" y="168.75" width="250" height="270" as="geometry" />
        </mxCell>
        <mxCell id="MHMaFlSaZDRWGOKKK15M-42" value="Catalog" style="rounded=1;whiteSpace=wrap;html=1;verticalAlign=top;fillColor=#f5f5f5;fontColor=#333333;strokeColor=#666666;" vertex="1" parent="1">
          <mxGeometry x="945.75" y="198.75" width="215" height="100" as="geometry" />
        </mxCell>
        <mxCell id="MHMaFlSaZDRWGOKKK15M-43" value="Schema" style="rounded=0;whiteSpace=wrap;html=1;rotation=90;verticalAlign=top;fillColor=#e1d5e7;strokeColor=#9673a6;" vertex="1" parent="1">
          <mxGeometry x="1035" y="160" width="53" height="177.5" as="geometry" />
        </mxCell>
        <mxCell id="MHMaFlSaZDRWGOKKK15M-44" value="Schema" style="rounded=0;whiteSpace=wrap;html=1;rotation=90;verticalAlign=top;fillColor=#e1d5e7;strokeColor=#9673a6;" vertex="1" parent="1">
          <mxGeometry x="1015.5" y="175" width="53" height="167.5" as="geometry" />
        </mxCell>
        <mxCell id="MHMaFlSaZDRWGOKKK15M-45" value="" style="shape=internalStorage;whiteSpace=wrap;html=1;backgroundOutline=1;dx=12;dy=6;" vertex="1" parent="1">
          <mxGeometry x="963.5" y="235.75" width="32" height="26" as="geometry" />
        </mxCell>
        <mxCell id="MHMaFlSaZDRWGOKKK15M-46" value="" style="shape=internalStorage;whiteSpace=wrap;html=1;backgroundOutline=1;dx=12;dy=6;" vertex="1" parent="1">
          <mxGeometry x="973.5" y="245.75" width="32" height="26" as="geometry" />
        </mxCell>
        <mxCell id="MHMaFlSaZDRWGOKKK15M-47" value="" style="shape=internalStorage;whiteSpace=wrap;html=1;backgroundOutline=1;dx=12;dy=6;" vertex="1" parent="1">
          <mxGeometry x="983.5" y="255.75" width="32" height="26" as="geometry" />
        </mxCell>
        <mxCell id="MHMaFlSaZDRWGOKKK15M-48" value="" style="shape=note;whiteSpace=wrap;html=1;backgroundOutline=1;darkOpacity=0.05;size=11;" vertex="1" parent="1">
          <mxGeometry x="1055.75" y="248.25" width="25" height="30" as="geometry" />
        </mxCell>
        <mxCell id="MHMaFlSaZDRWGOKKK15M-49" value="" style="shape=note;whiteSpace=wrap;html=1;backgroundOutline=1;darkOpacity=0.05;size=11;" vertex="1" parent="1">
          <mxGeometry x="1062.75" y="245.25" width="25" height="30" as="geometry" />
        </mxCell>
        <mxCell id="MHMaFlSaZDRWGOKKK15M-50" value="" style="shape=note;whiteSpace=wrap;html=1;backgroundOutline=1;darkOpacity=0.05;size=11;" vertex="1" parent="1">
          <mxGeometry x="1069.75" y="242.25" width="25" height="30" as="geometry" />
        </mxCell>
        <mxCell id="MHMaFlSaZDRWGOKKK15M-51" value="" style="shape=note;whiteSpace=wrap;html=1;backgroundOutline=1;darkOpacity=0.05;size=11;" vertex="1" parent="1">
          <mxGeometry x="1076.75" y="239.25" width="25" height="30" as="geometry" />
        </mxCell>
        <mxCell id="MHMaFlSaZDRWGOKKK15M-52" value="" style="shape=process;whiteSpace=wrap;html=1;backgroundOutline=1;size=0.2;" vertex="1" parent="1">
          <mxGeometry x="1021.75" y="239.25" width="30" height="15" as="geometry" />
        </mxCell>
        <mxCell id="MHMaFlSaZDRWGOKKK15M-53" value="Catalog" style="rounded=1;whiteSpace=wrap;html=1;verticalAlign=top;fillColor=#f5f5f5;fontColor=#333333;strokeColor=#666666;" vertex="1" parent="1">
          <mxGeometry x="945.75" y="314" width="215" height="100" as="geometry" />
        </mxCell>
        <mxCell id="MHMaFlSaZDRWGOKKK15M-54" value="Schema" style="rounded=0;whiteSpace=wrap;html=1;rotation=90;verticalAlign=top;fillColor=#e1d5e7;strokeColor=#9673a6;" vertex="1" parent="1">
          <mxGeometry x="1035" y="275.25" width="53" height="177.5" as="geometry" />
        </mxCell>
        <mxCell id="MHMaFlSaZDRWGOKKK15M-55" value="Schema" style="rounded=0;whiteSpace=wrap;html=1;rotation=90;verticalAlign=top;fillColor=#e1d5e7;strokeColor=#9673a6;" vertex="1" parent="1">
          <mxGeometry x="1015.5" y="290.25" width="53" height="167.5" as="geometry" />
        </mxCell>
        <mxCell id="MHMaFlSaZDRWGOKKK15M-56" value="" style="shape=internalStorage;whiteSpace=wrap;html=1;backgroundOutline=1;dx=12;dy=6;" vertex="1" parent="1">
          <mxGeometry x="963.5" y="351" width="32" height="26" as="geometry" />
        </mxCell>
        <mxCell id="MHMaFlSaZDRWGOKKK15M-57" value="" style="shape=internalStorage;whiteSpace=wrap;html=1;backgroundOutline=1;dx=12;dy=6;" vertex="1" parent="1">
          <mxGeometry x="973.5" y="361" width="32" height="26" as="geometry" />
        </mxCell>
        <mxCell id="MHMaFlSaZDRWGOKKK15M-58" value="" style="shape=internalStorage;whiteSpace=wrap;html=1;backgroundOutline=1;dx=12;dy=6;" vertex="1" parent="1">
          <mxGeometry x="983.5" y="371" width="32" height="26" as="geometry" />
        </mxCell>
        <mxCell id="MHMaFlSaZDRWGOKKK15M-59" value="" style="shape=note;whiteSpace=wrap;html=1;backgroundOutline=1;darkOpacity=0.05;size=11;" vertex="1" parent="1">
          <mxGeometry x="1055.75" y="363.5" width="25" height="30" as="geometry" />
        </mxCell>
        <mxCell id="MHMaFlSaZDRWGOKKK15M-60" value="" style="shape=note;whiteSpace=wrap;html=1;backgroundOutline=1;darkOpacity=0.05;size=11;" vertex="1" parent="1">
          <mxGeometry x="1062.75" y="360.5" width="25" height="30" as="geometry" />
        </mxCell>
        <mxCell id="MHMaFlSaZDRWGOKKK15M-61" value="" style="shape=note;whiteSpace=wrap;html=1;backgroundOutline=1;darkOpacity=0.05;size=11;" vertex="1" parent="1">
          <mxGeometry x="1069.75" y="357.5" width="25" height="30" as="geometry" />
        </mxCell>
        <mxCell id="MHMaFlSaZDRWGOKKK15M-62" value="" style="shape=note;whiteSpace=wrap;html=1;backgroundOutline=1;darkOpacity=0.05;size=11;" vertex="1" parent="1">
          <mxGeometry x="1076.75" y="354.5" width="25" height="30" as="geometry" />
        </mxCell>
        <mxCell id="MHMaFlSaZDRWGOKKK15M-63" value="" style="shape=process;whiteSpace=wrap;html=1;backgroundOutline=1;size=0.2;" vertex="1" parent="1">
          <mxGeometry x="1021.75" y="354.5" width="30" height="15" as="geometry" />
        </mxCell>
        <mxCell id="MHMaFlSaZDRWGOKKK15M-64" value="" style="shape=flexArrow;endArrow=classic;html=1;rounded=0;entryX=0.25;entryY=1;entryDx=0;entryDy=0;fillColor=default;" edge="1" parent="1" target="MHMaFlSaZDRWGOKKK15M-38">
          <mxGeometry width="50" height="50" relative="1" as="geometry">
            <mxPoint x="394" y="520" as="sourcePoint" />
            <mxPoint x="550" y="50" as="targetPoint" />
          </mxGeometry>
        </mxCell>
        <mxCell id="MHMaFlSaZDRWGOKKK15M-65" value="" style="shape=flexArrow;endArrow=classic;html=1;rounded=0;entryX=1;entryY=0.25;entryDx=0;entryDy=0;fillColor=default;" edge="1" parent="1" target="MHMaFlSaZDRWGOKKK15M-38">
          <mxGeometry width="50" height="50" relative="1" as="geometry">
            <mxPoint x="920" y="271" as="sourcePoint" />
            <mxPoint x="550" y="50" as="targetPoint" />
          </mxGeometry>
        </mxCell>
        <mxCell id="MHMaFlSaZDRWGOKKK15M-66" value="Load" style="text;html=1;align=center;verticalAlign=middle;resizable=0;points=[];autosize=1;strokeColor=none;fillColor=none;" vertex="1" parent="1">
          <mxGeometry x="785" y="228" width="50" height="30" as="geometry" />
        </mxCell>
        <mxCell id="MHMaFlSaZDRWGOKKK15M-67" value="" style="shape=flexArrow;endArrow=classic;html=1;rounded=0;fillColor=default;exitX=0.75;exitY=1;exitDx=0;exitDy=0;" edge="1" parent="1" source="MHMaFlSaZDRWGOKKK15M-38">
          <mxGeometry width="50" height="50" relative="1" as="geometry">
            <mxPoint x="454" y="520" as="sourcePoint" />
            <mxPoint x="920" y="360" as="targetPoint" />
            <Array as="points">
              <mxPoint x="454" y="360" />
            </Array>
          </mxGeometry>
        </mxCell>
        <mxCell id="MHMaFlSaZDRWGOKKK15M-68" value="Update" style="text;html=1;align=center;verticalAlign=middle;resizable=0;points=[];autosize=1;strokeColor=none;fillColor=none;" vertex="1" parent="1">
          <mxGeometry x="400.25" y="478" width="60" height="30" as="geometry" />
        </mxCell>
        <mxCell id="MHMaFlSaZDRWGOKKK15M-69" value="Update" style="text;html=1;align=center;verticalAlign=middle;resizable=0;points=[];autosize=1;strokeColor=none;fillColor=none;" vertex="1" parent="1">
          <mxGeometry x="777.75" y="327.5" width="60" height="30" as="geometry" />
        </mxCell>
        <mxCell id="MHMaFlSaZDRWGOKKK15M-70" value="&lt;div style=&quot;forced-color-adjust: none; color: rgb(0, 0, 0); font-family: Helvetica; font-size: 12px; font-style: normal; font-variant-ligatures: normal; font-variant-caps: normal; font-weight: 400; letter-spacing: normal; orphans: 2; text-align: center; text-indent: 0px; text-transform: none; widows: 2; word-spacing: 0px; -webkit-text-stroke-width: 0px; white-space: normal; background-color: rgb(251, 251, 251); text-decoration-thickness: initial; text-decoration-style: initial; text-decoration-color: initial;&quot;&gt;UnityCatalog&#39;s&lt;br&gt;&lt;/div&gt;&lt;div style=&quot;forced-color-adjust: none; color: rgb(0, 0, 0); font-family: Helvetica; font-size: 12px; font-style: normal; font-variant-ligatures: normal; font-variant-caps: normal; font-weight: 400; letter-spacing: normal; orphans: 2; text-align: center; text-indent: 0px; text-transform: none; widows: 2; word-spacing: 0px; -webkit-text-stroke-width: 0px; white-space: normal; background-color: rgb(251, 251, 251); text-decoration-thickness: initial; text-decoration-style: initial; text-decoration-color: initial;&quot;&gt;Metadata Collection&lt;/div&gt;" style="text;whiteSpace=wrap;html=1;" vertex="1" parent="1">
          <mxGeometry x="360.25" y="178" width="140" height="50" as="geometry" />
        </mxCell>
        <mxCell id="MHMaFlSaZDRWGOKKK15M-71" value="1" style="ellipse;whiteSpace=wrap;html=1;aspect=fixed;fillColor=#ffff88;strokeColor=#CC0000;fontStyle=1;fontSize=16;" vertex="1" parent="1">
          <mxGeometry x="840" y="225.75" width="30" height="30" as="geometry" />
        </mxCell>
        <mxCell id="MHMaFlSaZDRWGOKKK15M-72" value="2" style="ellipse;whiteSpace=wrap;html=1;aspect=fixed;fillColor=#ffff88;strokeColor=#CC0000;fontStyle=1;fontSize=16;" vertex="1" parent="1">
          <mxGeometry x="350" y="478" width="30" height="30" as="geometry" />
        </mxCell>
        <mxCell id="MHMaFlSaZDRWGOKKK15M-73" value="3" style="ellipse;whiteSpace=wrap;html=1;aspect=fixed;fillColor=#ffff88;strokeColor=#CC0000;fontStyle=1;fontSize=16;" vertex="1" parent="1">
          <mxGeometry x="837.75" y="384" width="30" height="30" as="geometry" />
        </mxCell>
        <mxCell id="MHMaFlSaZDRWGOKKK15M-74" value="2" style="ellipse;whiteSpace=wrap;html=1;aspect=fixed;fillColor=#ffff88;strokeColor=#CC0000;fontStyle=1;fontSize=16;" vertex="1" parent="1">
          <mxGeometry x="837.75" y="805.75" width="30" height="30" as="geometry" />
        </mxCell>
        <mxCell id="MHMaFlSaZDRWGOKKK15M-75" value="1" style="ellipse;whiteSpace=wrap;html=1;aspect=fixed;fillColor=#ffff88;strokeColor=#CC0000;fontStyle=1;fontSize=16;" vertex="1" parent="1">
          <mxGeometry x="347.75" y="1058" width="30" height="30" as="geometry" />
        </mxCell>
        <mxCell id="MHMaFlSaZDRWGOKKK15M-77" value="" style="shape=flexArrow;endArrow=classic;html=1;rounded=0;entryX=0.25;entryY=1;entryDx=0;entryDy=0;fillColor=default;" edge="1" parent="1">
          <mxGeometry width="50" height="50" relative="1" as="geometry">
            <mxPoint x="1042" y="1100" as="sourcePoint" />
            <mxPoint x="1042.13" y="1018.75" as="targetPoint" />
          </mxGeometry>
        </mxCell>
        <mxCell id="MHMaFlSaZDRWGOKKK15M-78" value="Update" style="text;html=1;align=center;verticalAlign=middle;resizable=0;points=[];autosize=1;strokeColor=none;fillColor=none;" vertex="1" parent="1">
          <mxGeometry x="1052.25" y="1058" width="60" height="30" as="geometry" />
        </mxCell>
        <mxCell id="MHMaFlSaZDRWGOKKK15M-79" value="3" style="ellipse;whiteSpace=wrap;html=1;aspect=fixed;fillColor=#ffff88;strokeColor=#CC0000;fontStyle=1;fontSize=16;" vertex="1" parent="1">
          <mxGeometry x="995.5" y="1058" width="30" height="30" as="geometry" />
        </mxCell>
        <mxCell id="MHMaFlSaZDRWGOKKK15M-80" value="4" style="ellipse;whiteSpace=wrap;html=1;aspect=fixed;fillColor=#ffff88;strokeColor=#CC0000;fontStyle=1;fontSize=16;" vertex="1" parent="1">
          <mxGeometry x="840" y="895.75" width="30" height="30" as="geometry" />
        </mxCell>
      </root>
    </mxGraphModel>
  </diagram>
</mxfile>
